<svg width="1150" height="19" viewBox="0 0 1150 19" fill="none" xmlns="http://www.w3.org/2000/svg">
<path d="M11.381 1.7C11.4823 1.7 11.571 1.738 11.647 1.814C11.7357 1.89 11.78 1.97867 11.78 2.08C11.78 2.16867 11.7547 2.27633 11.704 2.403L7.885 11.124C7.44167 12.1373 7.03 12.91 6.65 13.442C6.28267 13.974 5.83933 14.3667 5.32 14.62C4.80067 14.8733 4.123 15 3.287 15H2.394C2.26733 15 2.15967 14.9557 2.071 14.867C1.98233 14.7783 1.938 14.6707 1.938 14.544V13.138C1.938 12.9987 1.98233 12.8847 2.071 12.796C2.15967 12.7073 2.26733 12.663 2.394 12.663H3.097C3.52767 12.663 3.895 12.549 4.199 12.321C4.503 12.093 4.79433 11.713 5.073 11.181L0.266 2.308C0.228 2.232 0.209 2.16867 0.209 2.118C0.209 2.004 0.247 1.909 0.323 1.833C0.411667 1.74433 0.513 1.7 0.627 1.7H2.489C2.70433 1.7 2.869 1.82033 2.983 2.061L6.346 8.331L9.101 2.061C9.18967 1.82033 9.36067 1.7 9.614 1.7H11.381ZM16.8177 15.19C15.8043 15.19 14.981 15.0443 14.3477 14.753C13.727 14.449 13.271 14.0817 12.9797 13.651C12.701 13.2203 12.549 12.796 12.5237 12.378V12.321C12.5237 12.2323 12.5553 12.1627 12.6187 12.112C12.6947 12.0487 12.777 12.017 12.8657 12.017H14.4237C14.5503 12.017 14.6453 12.0423 14.7087 12.093C14.7847 12.1437 14.848 12.226 14.8987 12.34C15.0253 12.7073 15.2533 12.9733 15.5827 13.138C15.9247 13.29 16.368 13.366 16.9127 13.366C17.47 13.366 17.9133 13.2583 18.2427 13.043C18.572 12.8277 18.7367 12.4983 18.7367 12.055C18.7367 11.1937 18.2237 10.763 17.1977 10.763H16.1527C16.026 10.763 15.9247 10.725 15.8487 10.649C15.7727 10.573 15.7347 10.4717 15.7347 10.345V9.547C15.7347 9.433 15.7727 9.338 15.8487 9.262C15.9247 9.17333 16.026 9.129 16.1527 9.129H17.1217C17.5777 9.129 17.9197 9.04667 18.1477 8.882C18.3757 8.70467 18.4897 8.43233 18.4897 8.065C18.4897 7.69767 18.3567 7.39367 18.0907 7.153C17.8247 6.89967 17.394 6.773 16.7987 6.773C16.2287 6.773 15.817 6.86167 15.5637 7.039C15.3103 7.21633 15.114 7.50767 14.9747 7.913C14.9113 8.027 14.8417 8.10933 14.7657 8.16C14.7023 8.21067 14.6073 8.236 14.4807 8.236H12.9797C12.8783 8.236 12.7897 8.20433 12.7137 8.141C12.6377 8.065 12.606 7.97633 12.6187 7.875C12.644 7.36833 12.8023 6.89333 13.0937 6.45C13.3977 6.00667 13.86 5.64567 14.4807 5.367C15.1013 5.07567 15.8803 4.93 16.8177 4.93C18.211 4.93 19.237 5.20233 19.8957 5.747C20.567 6.29167 20.9027 6.95033 20.9027 7.723C20.9027 8.217 20.8077 8.62867 20.6177 8.958C20.4403 9.28733 20.1363 9.55967 19.7057 9.775C20.719 10.1677 21.2257 10.9973 21.2257 12.264C21.2257 13.176 20.8203 13.8917 20.0097 14.411C19.2117 14.9303 18.1477 15.19 16.8177 15.19ZM32.4006 9.832C32.4133 9.97133 32.4196 10.1867 32.4196 10.478C32.4196 10.7567 32.4133 10.9593 32.4006 11.086C32.3373 12.3527 31.9003 13.3533 31.0896 14.088C30.2916 14.8227 29.1453 15.19 27.6506 15.19C26.08 15.19 24.9083 14.7847 24.1356 13.974C23.3756 13.1507 22.964 11.941 22.9006 10.345L22.8816 9.205L22.9006 8.065C22.9386 6.26633 23.2173 4.91733 23.7366 4.018C24.256 3.106 25.0096 2.44733 25.9976 2.042C26.9856 1.624 28.5816 1.149 30.7856 0.616999L30.8806 0.598C30.982 0.598 31.077 0.636 31.1656 0.711999C31.2543 0.775333 31.305 0.863999 31.3176 0.977999L31.5646 2.232L31.5836 2.346C31.5836 2.44733 31.552 2.536 31.4886 2.612C31.4253 2.67533 31.343 2.71967 31.2416 2.745L30.6336 2.878C29.1263 3.22 28.0433 3.51133 27.3846 3.752C26.7386 3.98 26.2446 4.33467 25.9026 4.816C25.5606 5.29733 25.3643 6.01933 25.3136 6.982C25.6176 6.602 26.0166 6.298 26.5106 6.07C27.0173 5.842 27.5493 5.728 28.1066 5.728C29.4366 5.728 30.469 6.09533 31.2036 6.83C31.9383 7.56467 32.3373 8.56533 32.4006 9.832ZM29.8166 10.991C29.8293 10.9023 29.8356 10.7377 29.8356 10.497C29.8356 10.231 29.8293 10.041 29.8166 9.927C29.7913 9.14167 29.6013 8.54 29.2466 8.122C28.892 7.69133 28.4106 7.476 27.8026 7.476C27.106 7.476 26.555 7.69133 26.1496 8.122C25.7443 8.54 25.529 9.14167 25.5036 9.927L25.4846 10.497L25.5036 10.991C25.529 11.789 25.7253 12.397 26.0926 12.815C26.46 13.233 26.9793 13.442 27.6506 13.442C28.322 13.442 28.8413 13.2393 29.2086 12.834C29.5886 12.416 29.7913 11.8017 29.8166 10.991ZM38.7786 15.19C37.3726 15.19 36.2516 14.7847 35.4156 13.974C34.5922 13.1507 34.1552 11.998 34.1046 10.516L34.0856 10.041L34.1046 9.566C34.1679 8.122 34.6112 6.98833 35.4346 6.165C36.2706 5.34167 37.3852 4.93 38.7786 4.93C40.2732 4.93 41.4259 5.386 42.2366 6.298C43.0599 7.21 43.4716 8.426 43.4716 9.946V10.345C43.4716 10.4717 43.4272 10.5793 43.3386 10.668C43.2499 10.7567 43.1359 10.801 42.9966 10.801H36.6886V10.953C36.7139 11.6497 36.9039 12.2387 37.2586 12.72C37.6259 13.1887 38.1262 13.423 38.7596 13.423C39.5069 13.423 40.1086 13.1317 40.5646 12.549C40.6786 12.4097 40.7672 12.321 40.8306 12.283C40.9066 12.245 41.0142 12.226 41.1536 12.226H42.7876C42.9016 12.226 42.9966 12.264 43.0726 12.34C43.1612 12.4033 43.2056 12.4857 43.2056 12.587C43.2056 12.891 43.0219 13.252 42.6546 13.67C42.2999 14.0753 41.7869 14.43 41.1156 14.734C40.4442 15.038 39.6652 15.19 38.7786 15.19ZM40.8876 9.205V9.148C40.8876 8.40067 40.6976 7.799 40.3176 7.343C39.9502 6.887 39.4372 6.659 38.7786 6.659C38.1199 6.659 37.6069 6.887 37.2396 7.343C36.8722 7.799 36.6886 8.40067 36.6886 9.148V9.205H40.8876ZM54.5894 14.411C54.6527 14.4743 54.6844 14.5567 54.6844 14.658C54.6844 14.7593 54.6464 14.8417 54.5704 14.905C54.4944 14.9683 54.3994 15 54.2854 15H52.3664C52.1637 15 51.9864 14.905 51.8344 14.715L49.3644 10.991H47.9584V14.544C47.9584 14.6707 47.914 14.7783 47.8254 14.867C47.7367 14.9557 47.629 15 47.5024 15H45.9444C45.8177 15 45.71 14.9557 45.6214 14.867C45.5327 14.7783 45.4884 14.6707 45.4884 14.544V5.576C45.4884 5.44933 45.5327 5.34167 45.6214 5.253C45.71 5.16433 45.8177 5.12 45.9444 5.12H47.5024C47.629 5.12 47.7367 5.16433 47.8254 5.253C47.914 5.34167 47.9584 5.44933 47.9584 5.576V8.977H49.3644L51.6444 5.424C51.7204 5.32267 51.7964 5.24667 51.8724 5.196C51.9484 5.14533 52.0497 5.12 52.1764 5.12H53.8674C53.994 5.12 54.0954 5.15167 54.1714 5.215C54.2474 5.27833 54.2854 5.36067 54.2854 5.462C54.2854 5.538 54.2537 5.62033 54.1904 5.709L51.4734 9.889L54.5894 14.411ZM65.3489 5.12C65.4629 5.12 65.5642 5.16433 65.6529 5.253C65.7415 5.329 65.7859 5.424 65.7859 5.538V14.544C65.7859 14.6707 65.7415 14.7783 65.6529 14.867C65.5642 14.9557 65.4565 15 65.3299 15H63.7529C63.6262 15 63.5185 14.9557 63.4299 14.867C63.3412 14.7783 63.2969 14.6707 63.2969 14.544V8.445L58.7369 14.696C58.6229 14.8987 58.4519 15 58.2239 15H56.7799C56.6659 15 56.5645 14.962 56.4759 14.886C56.3872 14.7973 56.3429 14.6897 56.3429 14.563V5.576C56.3429 5.44933 56.3872 5.34167 56.4759 5.253C56.5645 5.16433 56.6722 5.12 56.7989 5.12H58.3759C58.5152 5.12 58.6229 5.16433 58.6989 5.253C58.7875 5.329 58.8319 5.43667 58.8319 5.576V11.694L63.3919 5.424C63.5312 5.22133 63.7022 5.12 63.9049 5.12H65.3489ZM72.4558 15.19C71.0624 15.19 69.9478 14.8037 69.1118 14.031C68.2884 13.2583 67.8514 12.188 67.8008 10.82L67.7818 10.06L67.8008 9.3C67.8514 7.932 68.2884 6.86167 69.1118 6.089C69.9478 5.31633 71.0624 4.93 72.4558 4.93C73.4438 4.93 74.2798 5.10733 74.9638 5.462C75.6604 5.81667 76.1734 6.25367 76.5028 6.773C76.8448 7.27967 77.0284 7.761 77.0538 8.217C77.0664 8.34367 77.0221 8.45133 76.9208 8.54C76.8321 8.62867 76.7244 8.673 76.5978 8.673H74.9258C74.7991 8.673 74.6978 8.64767 74.6218 8.597C74.5584 8.53367 74.4951 8.43233 74.4318 8.293C74.2418 7.799 73.9884 7.44433 73.6718 7.229C73.3678 7.01367 72.9751 6.906 72.4938 6.906C71.8478 6.906 71.3411 7.115 70.9738 7.533C70.6064 7.93833 70.4101 8.559 70.3848 9.395L70.3658 10.098L70.3848 10.725C70.4354 12.3843 71.1384 13.214 72.4938 13.214C72.9878 13.214 73.3868 13.1063 73.6908 12.891C73.9948 12.6757 74.2418 12.321 74.4318 11.827C74.4951 11.6877 74.5584 11.5927 74.6218 11.542C74.6978 11.4787 74.7991 11.447 74.9258 11.447H76.5978C76.7244 11.447 76.8321 11.4913 76.9208 11.58C77.0221 11.6687 77.0664 11.7763 77.0538 11.903C77.0284 12.3463 76.8511 12.8213 76.5218 13.328C76.1924 13.8347 75.6858 14.2717 75.0018 14.639C74.3178 15.0063 73.4691 15.19 72.4558 15.19ZM82.0563 15C81.9296 15 81.8219 14.9557 81.7333 14.867C81.6446 14.7783 81.6003 14.6707 81.6003 14.544V7.134H78.5033C78.3766 7.134 78.2689 7.08967 78.1803 7.001C78.0916 6.91233 78.0473 6.79833 78.0473 6.659V5.576C78.0473 5.43667 78.0916 5.329 78.1803 5.253C78.2689 5.16433 78.3766 5.12 78.5033 5.12H87.1293C87.2686 5.12 87.3826 5.16433 87.4713 5.253C87.5599 5.34167 87.6043 5.44933 87.6043 5.576V6.659C87.6043 6.78567 87.5599 6.89967 87.4713 7.001C87.3826 7.08967 87.2686 7.134 87.1293 7.134H84.0513V14.544C84.0513 14.6707 84.0069 14.7783 83.9183 14.867C83.8423 14.9557 83.7346 15 83.5953 15H82.0563ZM91.9794 15.19C91.3334 15.19 90.7381 15.0633 90.1934 14.81C89.6614 14.544 89.2371 14.1893 88.9204 13.746C88.6164 13.3027 88.4644 12.815 88.4644 12.283C88.4644 11.4217 88.8128 10.725 89.5094 10.193C90.2061 9.661 91.1624 9.3 92.3784 9.11L94.9814 8.73V8.331C94.9814 7.77367 94.8421 7.35567 94.5634 7.077C94.2848 6.79833 93.8351 6.659 93.2144 6.659C92.7964 6.659 92.4544 6.74133 92.1884 6.906C91.9351 7.058 91.7324 7.21 91.5804 7.362C91.4284 7.52667 91.3271 7.63433 91.2764 7.685C91.2258 7.837 91.1308 7.913 90.9914 7.913H89.5284C89.4144 7.913 89.3131 7.875 89.2244 7.799C89.1484 7.723 89.1104 7.62167 89.1104 7.495C89.1231 7.17833 89.2751 6.81733 89.5664 6.412C89.8704 6.00667 90.3328 5.65833 90.9534 5.367C91.5741 5.07567 92.3341 4.93 93.2334 4.93C94.7281 4.93 95.8174 5.26567 96.5014 5.937C97.1854 6.60833 97.5274 7.48867 97.5274 8.578V14.544C97.5274 14.6707 97.4831 14.7783 97.3944 14.867C97.3184 14.9557 97.2108 15 97.0714 15H95.5324C95.4058 15 95.2981 14.9557 95.2094 14.867C95.1208 14.7783 95.0764 14.6707 95.0764 14.544V13.803C94.7978 14.2083 94.3988 14.544 93.8794 14.81C93.3728 15.0633 92.7394 15.19 91.9794 15.19ZM92.6254 13.385C93.3221 13.385 93.8921 13.157 94.3354 12.701C94.7788 12.245 95.0004 11.58 95.0004 10.706V10.307L93.1004 10.611C92.3658 10.725 91.8084 10.9087 91.4284 11.162C91.0611 11.4153 90.8774 11.7257 90.8774 12.093C90.8774 12.4983 91.0484 12.815 91.3904 13.043C91.7324 13.271 92.1441 13.385 92.6254 13.385ZM100.421 15C100.294 15 100.187 14.9557 100.098 14.867C100.009 14.7783 99.9649 14.6707 99.9649 14.544V5.576C99.9649 5.44933 100.009 5.34167 100.098 5.253C100.187 5.16433 100.294 5.12 100.421 5.12H101.998C102.137 5.12 102.245 5.16433 102.321 5.253C102.41 5.329 102.454 5.43667 102.454 5.576V8.977H106.748V5.576C106.748 5.43667 106.792 5.329 106.881 5.253C106.97 5.16433 107.077 5.12 107.204 5.12H108.781C108.92 5.12 109.028 5.16433 109.104 5.253C109.193 5.329 109.237 5.43667 109.237 5.576V14.544C109.237 14.6707 109.193 14.7783 109.104 14.867C109.028 14.9557 108.92 15 108.781 15H107.204C107.077 15 106.97 14.9557 106.881 14.867C106.792 14.7783 106.748 14.6707 106.748 14.544V10.972H102.454V14.544C102.454 14.6707 102.41 14.7783 102.321 14.867C102.245 14.9557 102.137 15 101.998 15H100.421ZM114.672 15.19C114.026 15.19 113.43 15.0633 112.886 14.81C112.354 14.544 111.929 14.1893 111.613 13.746C111.309 13.3027 111.157 12.815 111.157 12.283C111.157 11.4217 111.505 10.725 112.202 10.193C112.898 9.661 113.855 9.3 115.071 9.11L117.674 8.73V8.331C117.674 7.77367 117.534 7.35567 117.256 7.077C116.977 6.79833 116.527 6.659 115.907 6.659C115.489 6.659 115.147 6.74133 114.881 6.906C114.627 7.058 114.425 7.21 114.273 7.362C114.121 7.52667 114.019 7.63433 113.969 7.685C113.918 7.837 113.823 7.913 113.684 7.913H112.221C112.107 7.913 112.005 7.875 111.917 7.799C111.841 7.723 111.803 7.62167 111.803 7.495C111.815 7.17833 111.967 6.81733 112.259 6.412C112.563 6.00667 113.025 5.65833 113.646 5.367C114.266 5.07567 115.026 4.93 115.926 4.93C117.42 4.93 118.51 5.26567 119.194 5.937C119.878 6.60833 120.22 7.48867 120.22 8.578V14.544C120.22 14.6707 120.175 14.7783 120.087 14.867C120.011 14.9557 119.903 15 119.764 15H118.225C118.098 15 117.99 14.9557 117.902 14.867C117.813 14.7783 117.769 14.6707 117.769 14.544V13.803C117.49 14.2083 117.091 14.544 116.572 14.81C116.065 15.0633 115.432 15.19 114.672 15.19ZM115.318 13.385C116.014 13.385 116.584 13.157 117.028 12.701C117.471 12.245 117.693 11.58 117.693 10.706V10.307L115.793 10.611C115.058 10.725 114.501 10.9087 114.121 11.162C113.753 11.4153 113.57 11.7257 113.57 12.093C113.57 12.4983 113.741 12.815 114.083 13.043C114.425 13.271 114.836 13.385 115.318 13.385ZM149.411 15C149.272 15 149.158 14.962 149.069 14.886C148.98 14.7973 148.936 14.6833 148.936 14.544V2.175C148.936 2.03567 148.98 1.92167 149.069 1.833C149.158 1.74433 149.272 1.7 149.411 1.7H150.912C151.178 1.7 151.368 1.82033 151.482 2.061L155.149 8.901L158.854 2.061C158.981 1.82033 159.171 1.7 159.424 1.7H160.906C161.045 1.7 161.159 1.74433 161.248 1.833C161.337 1.92167 161.381 2.03567 161.381 2.175V14.544C161.381 14.6833 161.337 14.7973 161.248 14.886C161.159 14.962 161.045 15 160.906 15H159.31C159.183 15 159.076 14.9557 158.987 14.867C158.898 14.7783 158.854 14.6707 158.854 14.544V6.317L156.194 11.39C156.029 11.6687 155.814 11.808 155.548 11.808H154.769C154.503 11.808 154.288 11.6687 154.123 11.39L151.463 6.317V14.544C151.463 14.6707 151.419 14.7783 151.33 14.867C151.254 14.9557 151.146 15 151.007 15H149.411ZM173.114 5.12C173.228 5.12 173.33 5.16433 173.418 5.253C173.507 5.329 173.551 5.424 173.551 5.538V14.544C173.551 14.6707 173.507 14.7783 173.418 14.867C173.33 14.9557 173.222 15 173.095 15H171.518C171.392 15 171.284 14.9557 171.195 14.867C171.107 14.7783 171.062 14.6707 171.062 14.544V8.445L166.502 14.696C166.388 14.8987 166.217 15 165.989 15H164.545C164.431 15 164.33 14.962 164.241 14.886C164.153 14.7973 164.108 14.6897 164.108 14.563V5.576C164.108 5.44933 164.153 5.34167 164.241 5.253C164.33 5.16433 164.438 5.12 164.564 5.12H166.141C166.281 5.12 166.388 5.16433 166.464 5.253C166.553 5.329 166.597 5.43667 166.597 5.576V11.694L171.157 5.424C171.297 5.22133 171.468 5.12 171.67 5.12H173.114ZM176.421 18.61C176.295 18.61 176.187 18.5657 176.098 18.477C176.01 18.401 175.965 18.2933 175.965 18.154V5.576C175.965 5.43667 176.01 5.329 176.098 5.253C176.187 5.16433 176.295 5.12 176.421 5.12H177.922C178.062 5.12 178.169 5.16433 178.245 5.253C178.334 5.329 178.378 5.43667 178.378 5.576V6.336C179.088 5.39867 180.101 4.93 181.418 4.93C182.698 4.93 183.679 5.33533 184.363 6.146C185.047 6.944 185.415 8.027 185.465 9.395C185.478 9.547 185.484 9.76867 185.484 10.06C185.484 10.364 185.478 10.592 185.465 10.744C185.415 12.074 185.047 13.1507 184.363 13.974C183.679 14.7847 182.698 15.19 181.418 15.19C180.139 15.19 179.164 14.7403 178.492 13.841V18.154C178.492 18.2933 178.448 18.401 178.359 18.477C178.283 18.5657 178.176 18.61 178.036 18.61H176.421ZM180.715 13.157C182.083 13.157 182.812 12.3147 182.9 10.63C182.913 10.5033 182.919 10.3133 182.919 10.06C182.919 9.80667 182.913 9.61667 182.9 9.49C182.812 7.80533 182.083 6.963 180.715 6.963C179.981 6.963 179.436 7.19733 179.081 7.666C178.727 8.13467 178.53 8.711 178.492 9.395L178.473 10.117L178.492 10.858C178.518 11.4913 178.714 12.036 179.081 12.492C179.461 12.9353 180.006 13.157 180.715 13.157ZM218.551 15.19C217.094 15.19 215.885 14.8733 214.922 14.24C213.959 13.6067 213.415 12.7517 213.288 11.675V11.637C213.288 11.5357 213.326 11.4533 213.402 11.39C213.491 11.314 213.586 11.276 213.687 11.276H215.435C215.562 11.276 215.657 11.3013 215.72 11.352C215.796 11.4027 215.866 11.4977 215.929 11.637C216.081 12.055 216.366 12.3907 216.784 12.644C217.215 12.8973 217.791 13.024 218.513 13.024C219.4 13.024 220.09 12.739 220.584 12.169C221.078 11.5863 221.325 10.7757 221.325 9.737V9.376H217.164C217.037 9.376 216.93 9.33167 216.841 9.243C216.752 9.14167 216.708 9.02133 216.708 8.882V7.799C216.708 7.65967 216.752 7.54567 216.841 7.457C216.93 7.36833 217.037 7.324 217.164 7.324H221.325V6.982C221.325 5.86733 221.084 5.044 220.603 4.512C220.122 3.96733 219.425 3.695 218.513 3.695C217.791 3.695 217.215 3.828 216.784 4.094C216.366 4.34733 216.1 4.67667 215.986 5.082C215.923 5.22133 215.853 5.31633 215.777 5.367C215.714 5.41767 215.612 5.443 215.473 5.443H213.725C213.611 5.443 213.51 5.405 213.421 5.329C213.345 5.253 213.313 5.158 213.326 5.044C213.453 3.92933 213.991 3.06167 214.941 2.441C215.891 1.82033 217.094 1.51 218.551 1.51C220.198 1.51 221.509 1.966 222.484 2.878C223.459 3.77733 223.979 5.17067 224.042 7.058C224.055 7.4 224.061 7.83067 224.061 8.35C224.061 8.86933 224.055 9.3 224.042 9.642C223.979 11.542 223.459 12.9417 222.484 13.841C221.521 14.7403 220.21 15.19 218.551 15.19ZM235.423 14.411C235.487 14.4743 235.518 14.5567 235.518 14.658C235.518 14.7593 235.48 14.8417 235.404 14.905C235.328 14.9683 235.233 15 235.119 15H233.2C232.998 15 232.82 14.905 232.668 14.715L230.198 10.991H228.792V14.544C228.792 14.6707 228.748 14.7783 228.659 14.867C228.571 14.9557 228.463 15 228.336 15H226.778C226.652 15 226.544 14.9557 226.455 14.867C226.367 14.7783 226.322 14.6707 226.322 14.544V5.576C226.322 5.44933 226.367 5.34167 226.455 5.253C226.544 5.16433 226.652 5.12 226.778 5.12H228.336C228.463 5.12 228.571 5.16433 228.659 5.253C228.748 5.34167 228.792 5.44933 228.792 5.576V8.977H230.198L232.478 5.424C232.554 5.32267 232.63 5.24667 232.706 5.196C232.782 5.14533 232.884 5.12 233.01 5.12H234.701C234.828 5.12 234.929 5.15167 235.005 5.215C235.081 5.27833 235.119 5.36067 235.119 5.462C235.119 5.538 235.088 5.62033 235.024 5.709L232.307 9.889L235.423 14.411ZM241.102 15.19C239.62 15.19 238.473 14.81 237.663 14.05C236.852 13.2773 236.415 12.226 236.352 10.896L236.333 10.06L236.352 9.224C236.415 7.90667 236.858 6.86167 237.682 6.089C238.505 5.31633 239.645 4.93 241.102 4.93C242.558 4.93 243.698 5.31633 244.522 6.089C245.345 6.86167 245.788 7.90667 245.852 9.224C245.864 9.376 245.871 9.65467 245.871 10.06C245.871 10.4653 245.864 10.744 245.852 10.896C245.788 12.226 245.351 13.2773 244.541 14.05C243.73 14.81 242.584 15.19 241.102 15.19ZM241.102 13.309C241.773 13.309 242.292 13.1 242.66 12.682C243.027 12.2513 243.23 11.6243 243.268 10.801C243.28 10.6743 243.287 10.4273 243.287 10.06C243.287 9.69267 243.28 9.44567 243.268 9.319C243.23 8.49567 243.027 7.875 242.66 7.457C242.292 7.02633 241.773 6.811 241.102 6.811C240.43 6.811 239.911 7.02633 239.544 7.457C239.176 7.875 238.974 8.49567 238.936 9.319L238.917 10.06L238.936 10.801C238.974 11.6243 239.176 12.2513 239.544 12.682C239.911 13.1 240.43 13.309 241.102 13.309ZM248.432 15C248.305 15 248.197 14.9557 248.109 14.867C248.02 14.7783 247.976 14.6707 247.976 14.544V5.576C247.976 5.44933 248.02 5.34167 248.109 5.253C248.197 5.16433 248.305 5.12 248.432 5.12H250.009C250.148 5.12 250.256 5.16433 250.332 5.253C250.42 5.329 250.465 5.43667 250.465 5.576V8.977H254.759V5.576C254.759 5.43667 254.803 5.329 254.892 5.253C254.98 5.16433 255.088 5.12 255.215 5.12H256.792C256.931 5.12 257.039 5.16433 257.115 5.253C257.203 5.329 257.248 5.43667 257.248 5.576V14.544C257.248 14.6707 257.203 14.7783 257.115 14.867C257.039 14.9557 256.931 15 256.792 15H255.215C255.088 15 254.98 14.9557 254.892 14.867C254.803 14.7783 254.759 14.6707 254.759 14.544V10.972H250.465V14.544C250.465 14.6707 250.42 14.7783 250.332 14.867C250.256 14.9557 250.148 15 250.009 15H248.432ZM264.184 15.19C262.702 15.19 261.555 14.81 260.745 14.05C259.934 13.2773 259.497 12.226 259.434 10.896L259.415 10.06L259.434 9.224C259.497 7.90667 259.94 6.86167 260.764 6.089C261.587 5.31633 262.727 4.93 264.184 4.93C265.64 4.93 266.78 5.31633 267.604 6.089C268.427 6.86167 268.87 7.90667 268.934 9.224C268.946 9.376 268.953 9.65467 268.953 10.06C268.953 10.4653 268.946 10.744 268.934 10.896C268.87 12.226 268.433 13.2773 267.623 14.05C266.812 14.81 265.666 15.19 264.184 15.19ZM264.184 13.309C264.855 13.309 265.374 13.1 265.742 12.682C266.109 12.2513 266.312 11.6243 266.35 10.801C266.362 10.6743 266.369 10.4273 266.369 10.06C266.369 9.69267 266.362 9.44567 266.35 9.319C266.312 8.49567 266.109 7.875 265.742 7.457C265.374 7.02633 264.855 6.811 264.184 6.811C263.512 6.811 262.993 7.02633 262.626 7.457C262.258 7.875 262.056 8.49567 262.018 9.319L261.999 10.06L262.018 10.801C262.056 11.6243 262.258 12.2513 262.626 12.682C262.993 13.1 263.512 13.309 264.184 13.309ZM281.451 5.12C281.552 5.12 281.641 5.158 281.717 5.234C281.805 5.31 281.85 5.39233 281.85 5.481V14.601C281.85 14.715 281.812 14.81 281.736 14.886C281.66 14.962 281.558 15 281.432 15H279.798C279.671 15 279.57 14.962 279.494 14.886C279.43 14.81 279.399 14.715 279.399 14.601V9.281L277.366 13.024C277.277 13.176 277.188 13.29 277.1 13.366C277.024 13.442 276.91 13.48 276.758 13.48H276.131C275.991 13.48 275.877 13.442 275.789 13.366C275.7 13.29 275.618 13.176 275.542 13.024L273.509 9.357V14.601C273.509 14.715 273.471 14.81 273.395 14.886C273.319 14.962 273.224 15 273.11 15H271.476C271.349 15 271.248 14.962 271.172 14.886C271.096 14.81 271.058 14.715 271.058 14.601V5.481C271.058 5.39233 271.096 5.31 271.172 5.234C271.248 5.158 271.336 5.12 271.438 5.12H273.034C273.249 5.12 273.414 5.22767 273.528 5.443L276.454 10.763L279.38 5.443C279.494 5.22767 279.658 5.12 279.874 5.12H281.451ZM293.423 5.12C293.537 5.12 293.638 5.16433 293.727 5.253C293.816 5.329 293.86 5.424 293.86 5.538V14.544C293.86 14.6707 293.816 14.7783 293.727 14.867C293.638 14.9557 293.531 15 293.404 15H291.827C291.7 15 291.593 14.9557 291.504 14.867C291.415 14.7783 291.371 14.6707 291.371 14.544V8.445L286.811 14.696C286.697 14.8987 286.526 15 286.298 15H284.854C284.74 15 284.639 14.962 284.55 14.886C284.461 14.7973 284.417 14.6897 284.417 14.563V5.576C284.417 5.44933 284.461 5.34167 284.55 5.253C284.639 5.16433 284.746 5.12 284.873 5.12H286.45C286.589 5.12 286.697 5.16433 286.773 5.253C286.862 5.329 286.906 5.43667 286.906 5.576V11.694L291.466 5.424C291.605 5.22133 291.776 5.12 291.979 5.12H293.423ZM305.356 14.411C305.419 14.4743 305.451 14.5567 305.451 14.658C305.451 14.7593 305.413 14.8417 305.337 14.905C305.261 14.9683 305.166 15 305.052 15H303.133C302.93 15 302.753 14.905 302.601 14.715L300.131 10.991H298.725V14.544C298.725 14.6707 298.681 14.7783 298.592 14.867C298.503 14.9557 298.396 15 298.269 15H296.711C296.584 15 296.477 14.9557 296.388 14.867C296.299 14.7783 296.255 14.6707 296.255 14.544V5.576C296.255 5.44933 296.299 5.34167 296.388 5.253C296.477 5.16433 296.584 5.12 296.711 5.12H298.269C298.396 5.12 298.503 5.16433 298.592 5.253C298.681 5.34167 298.725 5.44933 298.725 5.576V8.977H300.131L302.411 5.424C302.487 5.32267 302.563 5.24667 302.639 5.196C302.715 5.14533 302.816 5.12 302.943 5.12H304.634C304.761 5.12 304.862 5.15167 304.938 5.215C305.014 5.27833 305.052 5.36067 305.052 5.462C305.052 5.538 305.02 5.62033 304.957 5.709L302.24 9.889L305.356 14.411ZM309.978 15.19C309.332 15.19 308.737 15.0633 308.192 14.81C307.66 14.544 307.236 14.1893 306.919 13.746C306.615 13.3027 306.463 12.815 306.463 12.283C306.463 11.4217 306.812 10.725 307.508 10.193C308.205 9.661 309.161 9.3 310.377 9.11L312.98 8.73V8.331C312.98 7.77367 312.841 7.35567 312.562 7.077C312.284 6.79833 311.834 6.659 311.213 6.659C310.795 6.659 310.453 6.74133 310.187 6.906C309.934 7.058 309.731 7.21 309.579 7.362C309.427 7.52667 309.326 7.63433 309.275 7.685C309.225 7.837 309.13 7.913 308.99 7.913H307.527C307.413 7.913 307.312 7.875 307.223 7.799C307.147 7.723 307.109 7.62167 307.109 7.495C307.122 7.17833 307.274 6.81733 307.565 6.412C307.869 6.00667 308.332 5.65833 308.952 5.367C309.573 5.07567 310.333 4.93 311.232 4.93C312.727 4.93 313.816 5.26567 314.5 5.937C315.184 6.60833 315.526 7.48867 315.526 8.578V14.544C315.526 14.6707 315.482 14.7783 315.393 14.867C315.317 14.9557 315.21 15 315.07 15H313.531C313.405 15 313.297 14.9557 313.208 14.867C313.12 14.7783 313.075 14.6707 313.075 14.544V13.803C312.797 14.2083 312.398 14.544 311.878 14.81C311.372 15.0633 310.738 15.19 309.978 15.19ZM310.624 13.385C311.321 13.385 311.891 13.157 312.334 12.701C312.778 12.245 312.999 11.58 312.999 10.706V10.307L311.099 10.611C310.365 10.725 309.807 10.9087 309.427 11.162C309.06 11.4153 308.876 11.7257 308.876 12.093C308.876 12.4983 309.047 12.815 309.389 13.043C309.731 13.271 310.143 13.385 310.624 13.385ZM344.699 15C344.572 15 344.464 14.9557 344.376 14.867C344.287 14.7783 344.243 14.6707 344.243 14.544V2.175C344.243 2.03567 344.281 1.92167 344.357 1.833C344.445 1.74433 344.559 1.7 344.699 1.7H354.655C354.794 1.7 354.908 1.74433 354.997 1.833C355.085 1.92167 355.13 2.03567 355.13 2.175V14.544C355.13 14.6833 355.085 14.7973 354.997 14.886C354.908 14.962 354.794 15 354.655 15H352.945C352.818 15 352.71 14.9557 352.622 14.867C352.533 14.7783 352.489 14.6707 352.489 14.544V4.075H346.884V14.544C346.884 14.6707 346.839 14.7783 346.751 14.867C346.675 14.9557 346.567 15 346.428 15H344.699ZM362.227 15.19C360.745 15.19 359.598 14.81 358.788 14.05C357.977 13.2773 357.54 12.226 357.477 10.896L357.458 10.06L357.477 9.224C357.54 7.90667 357.983 6.86167 358.807 6.089C359.63 5.31633 360.77 4.93 362.227 4.93C363.683 4.93 364.823 5.31633 365.647 6.089C366.47 6.86167 366.913 7.90667 366.977 9.224C366.989 9.376 366.996 9.65467 366.996 10.06C366.996 10.4653 366.989 10.744 366.977 10.896C366.913 12.226 366.476 13.2773 365.666 14.05C364.855 14.81 363.709 15.19 362.227 15.19ZM362.227 13.309C362.898 13.309 363.417 13.1 363.785 12.682C364.152 12.2513 364.355 11.6243 364.393 10.801C364.405 10.6743 364.412 10.4273 364.412 10.06C364.412 9.69267 364.405 9.44567 364.393 9.319C364.355 8.49567 364.152 7.875 363.785 7.457C363.417 7.02633 362.898 6.811 362.227 6.811C361.555 6.811 361.036 7.02633 360.669 7.457C360.301 7.875 360.099 8.49567 360.061 9.319L360.042 10.06L360.061 10.801C360.099 11.6243 360.301 12.2513 360.669 12.682C361.036 13.1 361.555 13.309 362.227 13.309ZM368.63 15C368.503 15 368.389 14.9557 368.288 14.867C368.199 14.7657 368.155 14.6517 368.155 14.525V13.347C368.155 13.2203 368.193 13.119 368.269 13.043C368.345 12.9543 368.452 12.9037 368.592 12.891C369.149 12.8657 369.548 12.4857 369.789 11.751C370.042 11.0037 370.169 9.80033 370.169 8.141V5.576C370.169 5.43667 370.213 5.329 370.302 5.253C370.39 5.16433 370.498 5.12 370.625 5.12H377.37C377.496 5.12 377.604 5.16433 377.693 5.253C377.781 5.34167 377.826 5.44933 377.826 5.576V14.544C377.826 14.6707 377.781 14.7783 377.693 14.867C377.604 14.9557 377.496 15 377.37 15H375.793C375.666 15 375.558 14.9557 375.47 14.867C375.381 14.7783 375.337 14.6707 375.337 14.544V7.134H372.544V8.407C372.544 10.0537 372.417 11.352 372.164 12.302C371.923 13.252 371.518 13.9423 370.948 14.373C370.39 14.791 369.618 15 368.63 15ZM389.388 5.12C389.502 5.12 389.603 5.16433 389.692 5.253C389.781 5.329 389.825 5.424 389.825 5.538V14.544C389.825 14.6707 389.781 14.7783 389.692 14.867C389.603 14.9557 389.496 15 389.369 15H387.792C387.665 15 387.558 14.9557 387.469 14.867C387.38 14.7783 387.336 14.6707 387.336 14.544V8.445L382.776 14.696C382.662 14.8987 382.491 15 382.263 15H380.819C380.705 15 380.604 14.962 380.515 14.886C380.426 14.7973 380.382 14.6897 380.382 14.563V5.576C380.382 5.44933 380.426 5.34167 380.515 5.253C380.604 5.16433 380.711 5.12 380.838 5.12H382.415C382.554 5.12 382.662 5.16433 382.738 5.253C382.827 5.329 382.871 5.43667 382.871 5.576V11.694L387.431 5.424C387.57 5.22133 387.741 5.12 387.944 5.12H389.388ZM395.241 15C395.114 15 395.006 14.9557 394.918 14.867C394.829 14.7783 394.785 14.6707 394.785 14.544V7.134H391.688C391.561 7.134 391.453 7.08967 391.365 7.001C391.276 6.91233 391.232 6.79833 391.232 6.659V5.576C391.232 5.43667 391.276 5.329 391.365 5.253C391.453 5.16433 391.561 5.12 391.688 5.12H400.314C400.453 5.12 400.567 5.16433 400.656 5.253C400.744 5.34167 400.789 5.44933 400.789 5.576V6.659C400.789 6.78567 400.744 6.89967 400.656 7.001C400.567 7.08967 400.453 7.134 400.314 7.134H397.236V14.544C397.236 14.6707 397.191 14.7783 397.103 14.867C397.027 14.9557 396.919 15 396.78 15H395.241ZM411.301 5.12C411.415 5.12 411.516 5.16433 411.605 5.253C411.694 5.329 411.738 5.424 411.738 5.538V14.544C411.738 14.6707 411.694 14.7783 411.605 14.867C411.516 14.9557 411.409 15 411.282 15H409.705C409.578 15 409.471 14.9557 409.382 14.867C409.293 14.7783 409.249 14.6707 409.249 14.544V8.445L404.689 14.696C404.575 14.8987 404.404 15 404.176 15H402.732C402.618 15 402.517 14.962 402.428 14.886C402.339 14.7973 402.295 14.6897 402.295 14.563V5.576C402.295 5.44933 402.339 5.34167 402.428 5.253C402.517 5.16433 402.624 5.12 402.751 5.12H404.328C404.467 5.12 404.575 5.16433 404.651 5.253C404.74 5.329 404.784 5.43667 404.784 5.576V11.694L409.344 5.424C409.483 5.22133 409.654 5.12 409.857 5.12H411.301ZM423.234 14.411C423.297 14.4743 423.329 14.5567 423.329 14.658C423.329 14.7593 423.291 14.8417 423.215 14.905C423.139 14.9683 423.044 15 422.93 15H421.011C420.808 15 420.631 14.905 420.479 14.715L418.009 10.991H416.603V14.544C416.603 14.6707 416.559 14.7783 416.47 14.867C416.381 14.9557 416.274 15 416.147 15H414.589C414.462 15 414.355 14.9557 414.266 14.867C414.177 14.7783 414.133 14.6707 414.133 14.544V5.576C414.133 5.44933 414.177 5.34167 414.266 5.253C414.355 5.16433 414.462 5.12 414.589 5.12H416.147C416.274 5.12 416.381 5.16433 416.47 5.253C416.559 5.34167 416.603 5.44933 416.603 5.576V8.977H418.009L420.289 5.424C420.365 5.32267 420.441 5.24667 420.517 5.196C420.593 5.14533 420.694 5.12 420.821 5.12H422.512C422.639 5.12 422.74 5.15167 422.816 5.215C422.892 5.27833 422.93 5.36067 422.93 5.462C422.93 5.538 422.898 5.62033 422.835 5.709L420.118 9.889L423.234 14.411ZM427.856 15.19C427.21 15.19 426.615 15.0633 426.07 14.81C425.538 14.544 425.114 14.1893 424.797 13.746C424.493 13.3027 424.341 12.815 424.341 12.283C424.341 11.4217 424.69 10.725 425.386 10.193C426.083 9.661 427.039 9.3 428.255 9.11L430.858 8.73V8.331C430.858 7.77367 430.719 7.35567 430.44 7.077C430.162 6.79833 429.712 6.659 429.091 6.659C428.673 6.659 428.331 6.74133 428.065 6.906C427.812 7.058 427.609 7.21 427.457 7.362C427.305 7.52667 427.204 7.63433 427.153 7.685C427.103 7.837 427.008 7.913 426.868 7.913H425.405C425.291 7.913 425.19 7.875 425.101 7.799C425.025 7.723 424.987 7.62167 424.987 7.495C425 7.17833 425.152 6.81733 425.443 6.412C425.747 6.00667 426.21 5.65833 426.83 5.367C427.451 5.07567 428.211 4.93 429.11 4.93C430.605 4.93 431.694 5.26567 432.378 5.937C433.062 6.60833 433.404 7.48867 433.404 8.578V14.544C433.404 14.6707 433.36 14.7783 433.271 14.867C433.195 14.9557 433.088 15 432.948 15H431.409C431.283 15 431.175 14.9557 431.086 14.867C430.998 14.7783 430.953 14.6707 430.953 14.544V13.803C430.675 14.2083 430.276 14.544 429.756 14.81C429.25 15.0633 428.616 15.19 427.856 15.19ZM428.502 13.385C429.199 13.385 429.769 13.157 430.212 12.701C430.656 12.245 430.877 11.58 430.877 10.706V10.307L428.977 10.611C428.243 10.725 427.685 10.9087 427.305 11.162C426.938 11.4153 426.754 11.7257 426.754 12.093C426.754 12.4983 426.925 12.815 427.267 13.043C427.609 13.271 428.021 13.385 428.502 13.385ZM467.232 15.19C465.509 15.19 464.166 14.753 463.204 13.879C462.241 13.005 461.734 11.7067 461.684 9.984C461.671 9.61667 461.665 9.07833 461.665 8.369C461.665 7.647 461.671 7.10233 461.684 6.735C461.734 5.05033 462.254 3.75833 463.242 2.859C464.23 1.95967 465.56 1.51 467.232 1.51C468.904 1.51 470.234 1.95967 471.222 2.859C472.222 3.75833 472.748 5.05033 472.799 6.735C472.824 7.46967 472.837 8.01433 472.837 8.369C472.837 8.711 472.824 9.24933 472.799 9.984C472.735 11.7067 472.222 13.005 471.26 13.879C470.297 14.753 468.954 15.19 467.232 15.19ZM467.232 13.005C468.08 13.005 468.758 12.7517 469.265 12.245C469.771 11.7257 470.044 10.9403 470.082 9.889C470.107 9.129 470.12 8.616 470.12 8.35C470.12 8.05867 470.107 7.54567 470.082 6.811C470.044 5.75967 469.771 4.98067 469.265 4.474C468.758 3.95467 468.08 3.695 467.232 3.695C466.396 3.695 465.724 3.95467 465.218 4.474C464.711 4.98067 464.439 5.75967 464.401 6.811C464.388 7.17833 464.382 7.69133 464.382 8.35C464.382 8.996 464.388 9.509 464.401 9.889C464.439 10.9403 464.705 11.7257 465.199 12.245C465.705 12.7517 466.383 13.005 467.232 13.005ZM484.319 9.832C484.331 9.97133 484.338 10.1867 484.338 10.478C484.338 10.7567 484.331 10.9593 484.319 11.086C484.255 12.3527 483.818 13.3533 483.008 14.088C482.21 14.8227 481.063 15.19 479.569 15.19C477.998 15.19 476.826 14.7847 476.054 13.974C475.294 13.1507 474.882 11.941 474.819 10.345L474.8 9.205L474.819 8.065C474.857 6.26633 475.135 4.91733 475.655 4.018C476.174 3.106 476.928 2.44733 477.916 2.042C478.904 1.624 480.5 1.149 482.704 0.616999L482.799 0.598C482.9 0.598 482.995 0.636 483.084 0.711999C483.172 0.775333 483.223 0.863999 483.236 0.977999L483.483 2.232L483.502 2.346C483.502 2.44733 483.47 2.536 483.407 2.612C483.343 2.67533 483.261 2.71967 483.16 2.745L482.552 2.878C481.044 3.22 479.961 3.51133 479.303 3.752C478.657 3.98 478.163 4.33467 477.821 4.816C477.479 5.29733 477.282 6.01933 477.232 6.982C477.536 6.602 477.935 6.298 478.429 6.07C478.935 5.842 479.467 5.728 480.025 5.728C481.355 5.728 482.387 6.09533 483.122 6.83C483.856 7.56467 484.255 8.56533 484.319 9.832ZM481.735 10.991C481.747 10.9023 481.754 10.7377 481.754 10.497C481.754 10.231 481.747 10.041 481.735 9.927C481.709 9.14167 481.519 8.54 481.165 8.122C480.81 7.69133 480.329 7.476 479.721 7.476C479.024 7.476 478.473 7.69133 478.068 8.122C477.662 8.54 477.447 9.14167 477.422 9.927L477.403 10.497L477.422 10.991C477.447 11.789 477.643 12.397 478.011 12.815C478.378 13.233 478.897 13.442 479.569 13.442C480.24 13.442 480.759 13.2393 481.127 12.834C481.507 12.416 481.709 11.8017 481.735 10.991ZM498.525 17.318C498.398 17.318 498.29 17.2737 498.202 17.185C498.113 17.0963 498.069 16.9887 498.069 16.862V15H486.897C486.77 15 486.662 14.9557 486.574 14.867C486.485 14.7783 486.441 14.6707 486.441 14.544V5.576C486.441 5.44933 486.485 5.34167 486.574 5.253C486.662 5.16433 486.77 5.12 486.897 5.12H488.398C488.537 5.12 488.645 5.16433 488.721 5.253C488.809 5.329 488.854 5.43667 488.854 5.576V12.986H491.704V5.576C491.704 5.43667 491.748 5.329 491.837 5.253C491.925 5.16433 492.033 5.12 492.16 5.12H493.528C493.667 5.12 493.775 5.16433 493.851 5.253C493.939 5.329 493.984 5.43667 493.984 5.576V12.986H496.834V5.576C496.834 5.43667 496.878 5.329 496.967 5.253C497.055 5.16433 497.163 5.12 497.29 5.12H498.791C498.917 5.12 499.025 5.16433 499.114 5.253C499.202 5.34167 499.247 5.44933 499.247 5.576V12.986H500.102C500.228 12.986 500.336 13.0303 500.425 13.119C500.513 13.2077 500.558 13.3153 500.558 13.442V16.862C500.558 17.0013 500.513 17.109 500.425 17.185C500.349 17.2737 500.241 17.318 500.102 17.318H498.525ZM506.505 15.19C505.099 15.19 503.978 14.7847 503.142 13.974C502.319 13.1507 501.882 11.998 501.831 10.516L501.812 10.041L501.831 9.566C501.894 8.122 502.338 6.98833 503.161 6.165C503.997 5.34167 505.112 4.93 506.505 4.93C508 4.93 509.152 5.386 509.963 6.298C510.786 7.21 511.198 8.426 511.198 9.946V10.345C511.198 10.4717 511.154 10.5793 511.065 10.668C510.976 10.7567 510.862 10.801 510.723 10.801H504.415V10.953C504.44 11.6497 504.63 12.2387 504.985 12.72C505.352 13.1887 505.853 13.423 506.486 13.423C507.233 13.423 507.835 13.1317 508.291 12.549C508.405 12.4097 508.494 12.321 508.557 12.283C508.633 12.245 508.741 12.226 508.88 12.226H510.514C510.628 12.226 510.723 12.264 510.799 12.34C510.888 12.4033 510.932 12.4857 510.932 12.587C510.932 12.891 510.748 13.252 510.381 13.67C510.026 14.0753 509.513 14.43 508.842 14.734C508.171 15.038 507.392 15.19 506.505 15.19ZM508.614 9.205V9.148C508.614 8.40067 508.424 7.799 508.044 7.343C507.677 6.887 507.164 6.659 506.505 6.659C505.846 6.659 505.333 6.887 504.966 7.343C504.599 7.799 504.415 8.40067 504.415 9.148V9.205H508.614ZM517.49 15.19C516.097 15.19 514.982 14.8037 514.146 14.031C513.323 13.2583 512.886 12.188 512.835 10.82L512.816 10.06L512.835 9.3C512.886 7.932 513.323 6.86167 514.146 6.089C514.982 5.31633 516.097 4.93 517.49 4.93C518.478 4.93 519.314 5.10733 519.998 5.462C520.695 5.81667 521.208 6.25367 521.537 6.773C521.879 7.27967 522.063 7.761 522.088 8.217C522.101 8.34367 522.056 8.45133 521.955 8.54C521.866 8.62867 521.759 8.673 521.632 8.673H519.96C519.833 8.673 519.732 8.64767 519.656 8.597C519.593 8.53367 519.529 8.43233 519.466 8.293C519.276 7.799 519.023 7.44433 518.706 7.229C518.402 7.01367 518.009 6.906 517.528 6.906C516.882 6.906 516.375 7.115 516.008 7.533C515.641 7.93833 515.444 8.559 515.419 9.395L515.4 10.098L515.419 10.725C515.47 12.3843 516.173 13.214 517.528 13.214C518.022 13.214 518.421 13.1063 518.725 12.891C519.029 12.6757 519.276 12.321 519.466 11.827C519.529 11.6877 519.593 11.5927 519.656 11.542C519.732 11.4787 519.833 11.447 519.96 11.447H521.632C521.759 11.447 521.866 11.4913 521.955 11.58C522.056 11.6687 522.101 11.7763 522.088 11.903C522.063 12.3463 521.885 12.8213 521.556 13.328C521.227 13.8347 520.72 14.2717 520.036 14.639C519.352 15.0063 518.503 15.19 517.49 15.19ZM527.09 15C526.964 15 526.856 14.9557 526.767 14.867C526.679 14.7783 526.634 14.6707 526.634 14.544V7.134H523.537C523.411 7.134 523.303 7.08967 523.214 7.001C523.126 6.91233 523.081 6.79833 523.081 6.659V5.576C523.081 5.43667 523.126 5.329 523.214 5.253C523.303 5.16433 523.411 5.12 523.537 5.12H532.163C532.303 5.12 532.417 5.16433 532.505 5.253C532.594 5.34167 532.638 5.44933 532.638 5.576V6.659C532.638 6.78567 532.594 6.89967 532.505 7.001C532.417 7.08967 532.303 7.134 532.163 7.134H529.085V14.544C529.085 14.6707 529.041 14.7783 528.952 14.867C528.876 14.9557 528.769 15 528.629 15H527.09ZM534.601 15C534.474 15 534.366 14.9557 534.278 14.867C534.189 14.7783 534.145 14.6707 534.145 14.544V5.576C534.145 5.44933 534.189 5.34167 534.278 5.253C534.366 5.16433 534.474 5.12 534.601 5.12H538.819C540.123 5.12 541.105 5.36067 541.764 5.842C542.435 6.32333 542.771 6.99467 542.771 7.856C542.771 8.36267 542.676 8.768 542.486 9.072C542.296 9.36333 542.011 9.623 541.631 9.851C542.074 10.0537 542.416 10.3577 542.657 10.763C542.91 11.1683 543.037 11.6243 543.037 12.131C543.037 13.0557 542.695 13.765 542.011 14.259C541.327 14.753 540.332 15 539.028 15H534.601ZM538.781 9.148C539.287 9.148 539.686 9.04667 539.978 8.844C540.269 8.62867 540.415 8.31833 540.415 7.913C540.415 7.52033 540.275 7.24167 539.997 7.077C539.718 6.91233 539.313 6.83 538.781 6.83H536.577V9.148H538.781ZM538.857 13.29C539.376 13.29 539.781 13.195 540.073 13.005C540.377 12.8023 540.529 12.5047 540.529 12.112C540.529 11.694 540.389 11.39 540.111 11.2C539.845 11.01 539.427 10.915 538.857 10.915H536.577V13.29H538.857ZM549.592 15.19C548.11 15.19 546.963 14.81 546.153 14.05C545.342 13.2773 544.905 12.226 544.842 10.896L544.823 10.06L544.842 9.224C544.905 7.90667 545.348 6.86167 546.172 6.089C546.995 5.31633 548.135 4.93 549.592 4.93C551.048 4.93 552.188 5.31633 553.012 6.089C553.835 6.86167 554.278 7.90667 554.342 9.224C554.354 9.376 554.361 9.65467 554.361 10.06C554.361 10.4653 554.354 10.744 554.342 10.896C554.278 12.226 553.841 13.2773 553.031 14.05C552.22 14.81 551.074 15.19 549.592 15.19ZM549.592 13.309C550.263 13.309 550.782 13.1 551.15 12.682C551.517 12.2513 551.72 11.6243 551.758 10.801C551.77 10.6743 551.777 10.4273 551.777 10.06C551.777 9.69267 551.77 9.44567 551.758 9.319C551.72 8.49567 551.517 7.875 551.15 7.457C550.782 7.02633 550.263 6.811 549.592 6.811C548.92 6.811 548.401 7.02633 548.034 7.457C547.666 7.875 547.464 8.49567 547.426 9.319L547.407 10.06L547.426 10.801C547.464 11.6243 547.666 12.2513 548.034 12.682C548.401 13.1 548.92 13.309 549.592 13.309ZM586.127 15C586 15 585.892 14.9557 585.804 14.867C585.715 14.7783 585.671 14.6707 585.671 14.544V4.037H582.156C582.029 4.037 581.921 3.99267 581.833 3.904C581.744 3.81533 581.7 3.70767 581.7 3.581V2.175C581.7 2.03567 581.738 1.92167 581.814 1.833C581.902 1.74433 582.016 1.7 582.156 1.7H591.846C591.985 1.7 592.099 1.74433 592.188 1.833C592.276 1.92167 592.321 2.03567 592.321 2.175V3.581C592.321 3.70767 592.276 3.81533 592.188 3.904C592.099 3.99267 591.985 4.037 591.846 4.037H588.35V14.544C588.35 14.6707 588.305 14.7783 588.217 14.867C588.128 14.9557 588.014 15 587.875 15H586.127ZM598.277 15.19C596.871 15.19 595.75 14.7847 594.914 13.974C594.09 13.1507 593.653 11.998 593.603 10.516L593.584 10.041L593.603 9.566C593.666 8.122 594.109 6.98833 594.933 6.165C595.769 5.34167 596.883 4.93 598.277 4.93C599.771 4.93 600.924 5.386 601.735 6.298C602.558 7.21 602.97 8.426 602.97 9.946V10.345C602.97 10.4717 602.925 10.5793 602.837 10.668C602.748 10.7567 602.634 10.801 602.495 10.801H596.187V10.953C596.212 11.6497 596.402 12.2387 596.757 12.72C597.124 13.1887 597.624 13.423 598.258 13.423C599.005 13.423 599.607 13.1317 600.063 12.549C600.177 12.4097 600.265 12.321 600.329 12.283C600.405 12.245 600.512 12.226 600.652 12.226H602.286C602.4 12.226 602.495 12.264 602.571 12.34C602.659 12.4033 602.704 12.4857 602.704 12.587C602.704 12.891 602.52 13.252 602.153 13.67C601.798 14.0753 601.285 14.43 600.614 14.734C599.942 15.038 599.163 15.19 598.277 15.19ZM600.386 9.205V9.148C600.386 8.40067 600.196 7.799 599.816 7.343C599.448 6.887 598.935 6.659 598.277 6.659C597.618 6.659 597.105 6.887 596.738 7.343C596.37 7.799 596.187 8.40067 596.187 9.148V9.205H600.386ZM604.568 15C604.454 15 604.353 14.962 604.264 14.886C604.188 14.7973 604.15 14.696 604.15 14.582C604.15 14.468 604.195 14.3603 604.283 14.259L607.513 9.927L604.511 5.861C604.435 5.75967 604.397 5.652 604.397 5.538C604.397 5.424 604.435 5.329 604.511 5.253C604.6 5.16433 604.701 5.12 604.815 5.12H606.468C606.595 5.12 606.69 5.15167 606.753 5.215C606.829 5.26567 606.905 5.34167 606.981 5.443L609.128 8.293L611.275 5.443C611.288 5.43033 611.339 5.37333 611.427 5.272C611.503 5.17067 611.624 5.12 611.788 5.12H613.365C613.479 5.12 613.574 5.16433 613.65 5.253C613.739 5.329 613.783 5.41767 613.783 5.519C613.783 5.64567 613.745 5.75967 613.669 5.861L610.629 9.965L613.878 14.259C613.967 14.3603 614.011 14.468 614.011 14.582C614.011 14.696 613.967 14.7973 613.878 14.886C613.802 14.962 613.707 15 613.593 15H611.864C611.662 15 611.491 14.8987 611.351 14.696L609.071 11.675L606.753 14.696C606.614 14.8987 606.443 15 606.24 15H604.568ZM616.167 15C616.04 15 615.933 14.9557 615.844 14.867C615.755 14.7783 615.711 14.6707 615.711 14.544V5.576C615.711 5.44933 615.755 5.34167 615.844 5.253C615.933 5.16433 616.04 5.12 616.167 5.12H617.744C617.883 5.12 617.991 5.16433 618.067 5.253C618.156 5.329 618.2 5.43667 618.2 5.576V8.977H622.494V5.576C622.494 5.43667 622.538 5.329 622.627 5.253C622.716 5.16433 622.823 5.12 622.95 5.12H624.527C624.666 5.12 624.774 5.16433 624.85 5.253C624.939 5.329 624.983 5.43667 624.983 5.576V14.544C624.983 14.6707 624.939 14.7783 624.85 14.867C624.774 14.9557 624.666 15 624.527 15H622.95C622.823 15 622.716 14.9557 622.627 14.867C622.538 14.7783 622.494 14.6707 622.494 14.544V10.972H618.2V14.544C618.2 14.6707 618.156 14.7783 618.067 14.867C617.991 14.9557 617.883 15 617.744 15H616.167ZM631.919 15.19C630.437 15.19 629.291 14.81 628.48 14.05C627.669 13.2773 627.232 12.226 627.169 10.896L627.15 10.06L627.169 9.224C627.232 7.90667 627.676 6.86167 628.499 6.089C629.322 5.31633 630.462 4.93 631.919 4.93C633.376 4.93 634.516 5.31633 635.339 6.089C636.162 6.86167 636.606 7.90667 636.669 9.224C636.682 9.376 636.688 9.65467 636.688 10.06C636.688 10.4653 636.682 10.744 636.669 10.896C636.606 12.226 636.169 13.2773 635.358 14.05C634.547 14.81 633.401 15.19 631.919 15.19ZM631.919 13.309C632.59 13.309 633.11 13.1 633.477 12.682C633.844 12.2513 634.047 11.6243 634.085 10.801C634.098 10.6743 634.104 10.4273 634.104 10.06C634.104 9.69267 634.098 9.44567 634.085 9.319C634.047 8.49567 633.844 7.875 633.477 7.457C633.11 7.02633 632.59 6.811 631.919 6.811C631.248 6.811 630.728 7.02633 630.361 7.457C629.994 7.875 629.791 8.49567 629.753 9.319L629.734 10.06L629.753 10.801C629.791 11.6243 629.994 12.2513 630.361 12.682C630.728 13.1 631.248 13.309 631.919 13.309ZM638.322 15C638.195 15 638.081 14.9557 637.98 14.867C637.891 14.7657 637.847 14.6517 637.847 14.525V13.347C637.847 13.2203 637.885 13.119 637.961 13.043C638.037 12.9543 638.145 12.9037 638.284 12.891C638.841 12.8657 639.24 12.4857 639.481 11.751C639.734 11.0037 639.861 9.80033 639.861 8.141V5.576C639.861 5.43667 639.905 5.329 639.994 5.253C640.083 5.16433 640.19 5.12 640.317 5.12H647.062C647.189 5.12 647.296 5.16433 647.385 5.253C647.474 5.34167 647.518 5.44933 647.518 5.576V14.544C647.518 14.6707 647.474 14.7783 647.385 14.867C647.296 14.9557 647.189 15 647.062 15H645.485C645.358 15 645.251 14.9557 645.162 14.867C645.073 14.7783 645.029 14.6707 645.029 14.544V7.134H642.236V8.407C642.236 10.0537 642.109 11.352 641.856 12.302C641.615 13.252 641.21 13.9423 640.64 14.373C640.083 14.791 639.31 15 638.322 15ZM654.444 15.19C652.962 15.19 651.816 14.81 651.005 14.05C650.195 13.2773 649.758 12.226 649.694 10.896L649.675 10.06L649.694 9.224C649.758 7.90667 650.201 6.86167 651.024 6.089C651.848 5.31633 652.988 4.93 654.444 4.93C655.901 4.93 657.041 5.31633 657.864 6.089C658.688 6.86167 659.131 7.90667 659.194 9.224C659.207 9.376 659.213 9.65467 659.213 10.06C659.213 10.4653 659.207 10.744 659.194 10.896C659.131 12.226 658.694 13.2773 657.883 14.05C657.073 14.81 655.926 15.19 654.444 15.19ZM654.444 13.309C655.116 13.309 655.635 13.1 656.002 12.682C656.37 12.2513 656.572 11.6243 656.61 10.801C656.623 10.6743 656.629 10.4273 656.629 10.06C656.629 9.69267 656.623 9.44567 656.61 9.319C656.572 8.49567 656.37 7.875 656.002 7.457C655.635 7.02633 655.116 6.811 654.444 6.811C653.773 6.811 653.254 7.02633 652.886 7.457C652.519 7.875 652.316 8.49567 652.278 9.319L652.259 10.06L652.278 10.801C652.316 11.6243 652.519 12.2513 652.886 12.682C653.254 13.1 653.773 13.309 654.444 13.309ZM661.774 15C661.648 15 661.54 14.9557 661.451 14.867C661.363 14.7783 661.318 14.6707 661.318 14.544V5.576C661.318 5.44933 661.363 5.34167 661.451 5.253C661.54 5.16433 661.648 5.12 661.774 5.12H667.797C667.937 5.12 668.044 5.16433 668.12 5.253C668.209 5.329 668.253 5.43667 668.253 5.576V6.659C668.253 6.79833 668.209 6.91233 668.12 7.001C668.032 7.08967 667.924 7.134 667.797 7.134H663.807V14.544C663.807 14.6707 663.763 14.7783 663.674 14.867C663.598 14.9557 663.491 15 663.351 15H661.774ZM678.785 5.12C678.899 5.12 679.001 5.16433 679.089 5.253C679.178 5.329 679.222 5.424 679.222 5.538V14.544C679.222 14.6707 679.178 14.7783 679.089 14.867C679.001 14.9557 678.893 15 678.766 15H677.189C677.063 15 676.955 14.9557 676.866 14.867C676.778 14.7783 676.733 14.6707 676.733 14.544V8.445L672.173 14.696C672.059 14.8987 671.888 15 671.66 15H670.216C670.102 15 670.001 14.962 669.912 14.886C669.824 14.7973 669.779 14.6897 669.779 14.563V5.576C669.779 5.44933 669.824 5.34167 669.912 5.253C670.001 5.16433 670.109 5.12 670.235 5.12H671.812C671.952 5.12 672.059 5.16433 672.135 5.253C672.224 5.329 672.268 5.43667 672.268 5.576V11.694L676.828 5.424C676.968 5.22133 677.139 5.12 677.341 5.12H678.785ZM690.623 5.12C690.737 5.12 690.839 5.16433 690.927 5.253C691.016 5.329 691.06 5.424 691.06 5.538V14.544C691.06 14.6707 691.016 14.7783 690.927 14.867C690.839 14.9557 690.731 15 690.604 15H689.027C688.901 15 688.793 14.9557 688.704 14.867C688.616 14.7783 688.571 14.6707 688.571 14.544V8.445L684.011 14.696C683.897 14.8987 683.726 15 683.498 15H682.054C681.94 15 681.839 14.962 681.75 14.886C681.662 14.7973 681.617 14.6897 681.617 14.563V5.576C681.617 5.44933 681.662 5.34167 681.75 5.253C681.839 5.16433 681.947 5.12 682.073 5.12H683.65C683.79 5.12 683.897 5.16433 683.973 5.253C684.062 5.329 684.106 5.43667 684.106 5.576V11.694L688.666 5.424C688.806 5.22133 688.977 5.12 689.179 5.12H690.623ZM724.864 15.19C723.116 15.19 721.761 14.7403 720.798 13.841C719.848 12.9417 719.341 11.675 719.278 10.041C719.265 9.699 719.259 9.14167 719.259 8.369C719.259 7.58367 719.265 7.01367 719.278 6.659C719.341 5.03767 719.854 3.77733 720.817 2.878C721.792 1.966 723.141 1.51 724.864 1.51C725.991 1.51 726.973 1.70633 727.809 2.099C728.645 2.479 729.291 3.00467 729.747 3.676C730.203 4.33467 730.444 5.082 730.469 5.918V5.956C730.469 6.05733 730.425 6.146 730.336 6.222C730.26 6.28533 730.171 6.317 730.07 6.317H728.265C728.113 6.317 727.999 6.28533 727.923 6.222C727.847 6.15867 727.784 6.03833 727.733 5.861C727.53 5.063 727.195 4.50567 726.726 4.189C726.257 3.85967 725.63 3.695 724.845 3.695C723.021 3.695 722.071 4.71467 721.995 6.754C721.982 7.096 721.976 7.62167 721.976 8.331C721.976 9.04033 721.982 9.57867 721.995 9.946C722.071 11.9853 723.021 13.005 724.845 13.005C725.63 13.005 726.257 12.8403 726.726 12.511C727.207 12.1817 727.543 11.6243 727.733 10.839C727.771 10.6617 727.828 10.5413 727.904 10.478C727.993 10.4147 728.113 10.383 728.265 10.383H730.07C730.184 10.383 730.279 10.421 730.355 10.497C730.444 10.573 730.482 10.668 730.469 10.782C730.444 11.618 730.203 12.3717 729.747 13.043C729.291 13.7017 728.645 14.2273 727.809 14.62C726.973 15 725.991 15.19 724.864 15.19ZM732.95 15C732.824 15 732.716 14.9557 732.627 14.867C732.539 14.7783 732.494 14.6707 732.494 14.544V5.576C732.494 5.44933 732.539 5.34167 732.627 5.253C732.716 5.16433 732.824 5.12 732.95 5.12H741.082C741.222 5.12 741.329 5.16433 741.405 5.253C741.494 5.329 741.538 5.43667 741.538 5.576V14.544C741.538 14.6707 741.494 14.7783 741.405 14.867C741.329 14.9557 741.222 15 741.082 15H739.505C739.379 15 739.271 14.9557 739.182 14.867C739.094 14.7783 739.049 14.6707 739.049 14.544V7.134H734.983V14.544C734.983 14.6707 734.939 14.7783 734.85 14.867C734.774 14.9557 734.667 15 734.527 15H732.95ZM748.479 15.19C746.997 15.19 745.851 14.81 745.04 14.05C744.23 13.2773 743.793 12.226 743.729 10.896L743.71 10.06L743.729 9.224C743.793 7.90667 744.236 6.86167 745.059 6.089C745.883 5.31633 747.023 4.93 748.479 4.93C749.936 4.93 751.076 5.31633 751.899 6.089C752.723 6.86167 753.166 7.90667 753.229 9.224C753.242 9.376 753.248 9.65467 753.248 10.06C753.248 10.4653 753.242 10.744 753.229 10.896C753.166 12.226 752.729 13.2773 751.918 14.05C751.108 14.81 749.961 15.19 748.479 15.19ZM748.479 13.309C749.151 13.309 749.67 13.1 750.037 12.682C750.405 12.2513 750.607 11.6243 750.645 10.801C750.658 10.6743 750.664 10.4273 750.664 10.06C750.664 9.69267 750.658 9.44567 750.645 9.319C750.607 8.49567 750.405 7.875 750.037 7.457C749.67 7.02633 749.151 6.811 748.479 6.811C747.808 6.811 747.289 7.02633 746.921 7.457C746.554 7.875 746.351 8.49567 746.313 9.319L746.294 10.06L746.313 10.801C746.351 11.6243 746.554 12.2513 746.921 12.682C747.289 13.1 747.808 13.309 748.479 13.309ZM755.829 18.61C755.702 18.61 755.594 18.5657 755.506 18.477C755.417 18.401 755.373 18.2933 755.373 18.154V5.576C755.373 5.43667 755.417 5.329 755.506 5.253C755.594 5.16433 755.702 5.12 755.829 5.12H757.33C757.469 5.12 757.577 5.16433 757.653 5.253C757.741 5.329 757.786 5.43667 757.786 5.576V6.336C758.495 5.39867 759.508 4.93 760.826 4.93C762.105 4.93 763.087 5.33533 763.771 6.146C764.455 6.944 764.822 8.027 764.873 9.395C764.885 9.547 764.892 9.76867 764.892 10.06C764.892 10.364 764.885 10.592 764.873 10.744C764.822 12.074 764.455 13.1507 763.771 13.974C763.087 14.7847 762.105 15.19 760.826 15.19C759.546 15.19 758.571 14.7403 757.9 13.841V18.154C757.9 18.2933 757.855 18.401 757.767 18.477C757.691 18.5657 757.583 18.61 757.444 18.61H755.829ZM760.123 13.157C761.491 13.157 762.219 12.3147 762.308 10.63C762.32 10.5033 762.327 10.3133 762.327 10.06C762.327 9.80667 762.32 9.61667 762.308 9.49C762.219 7.80533 761.491 6.963 760.123 6.963C759.388 6.963 758.843 7.19733 758.489 7.666C758.134 8.13467 757.938 8.711 757.9 9.395L757.881 10.117L757.9 10.858C757.925 11.4913 758.121 12.036 758.489 12.492C758.869 12.9353 759.413 13.157 760.123 13.157ZM770.046 15C769.919 15 769.811 14.9557 769.723 14.867C769.634 14.7783 769.59 14.6707 769.59 14.544V7.134H766.493C766.366 7.134 766.258 7.08967 766.17 7.001C766.081 6.91233 766.037 6.79833 766.037 6.659V5.576C766.037 5.43667 766.081 5.329 766.17 5.253C766.258 5.16433 766.366 5.12 766.493 5.12H775.119C775.258 5.12 775.372 5.16433 775.461 5.253C775.549 5.34167 775.594 5.44933 775.594 5.576V6.659C775.594 6.78567 775.549 6.89967 775.461 7.001C775.372 7.08967 775.258 7.134 775.119 7.134H772.041V14.544C772.041 14.6707 771.996 14.7783 771.908 14.867C771.832 14.9557 771.724 15 771.585 15H770.046ZM813.999 14.354C814.037 14.4047 814.056 14.4743 814.056 14.563C814.056 14.677 814.012 14.7783 813.923 14.867C813.847 14.9557 813.746 15 813.619 15H811.662C811.51 15 811.396 14.9747 811.32 14.924C811.244 14.8607 811.168 14.7783 811.092 14.677L807.824 9.452H806.019V14.544C806.019 14.6707 805.975 14.7783 805.886 14.867C805.81 14.9557 805.703 15 805.563 15H803.834C803.708 15 803.6 14.9557 803.511 14.867C803.423 14.7783 803.378 14.6707 803.378 14.544V2.175C803.378 2.03567 803.416 1.92167 803.492 1.833C803.581 1.74433 803.695 1.7 803.834 1.7H805.563C805.703 1.7 805.81 1.74433 805.886 1.833C805.975 1.92167 806.019 2.03567 806.019 2.175V7.077L807.691 7.096L810.769 2.042C810.896 1.814 811.124 1.7 811.453 1.7H813.334C813.461 1.7 813.556 1.738 813.619 1.814C813.695 1.89 813.733 1.985 813.733 2.099C813.733 2.14967 813.708 2.22567 813.657 2.327L810.066 8.122L813.999 14.354ZM823.673 5.12C823.774 5.12 823.863 5.158 823.939 5.234C824.028 5.31 824.072 5.39867 824.072 5.5C824.072 5.58867 824.047 5.69 823.996 5.804L820.386 14.43C819.993 15.3673 819.639 16.1147 819.322 16.672C819.005 17.2293 818.613 17.6917 818.144 18.059C817.675 18.4263 817.112 18.61 816.453 18.61H815.617C815.49 18.61 815.383 18.5657 815.294 18.477C815.205 18.401 815.161 18.2933 815.161 18.154V17.071C815.161 16.9443 815.205 16.8367 815.294 16.748C815.383 16.6593 815.49 16.615 815.617 16.615H816.206C816.586 16.615 816.871 16.5073 817.061 16.292C817.251 16.0767 817.479 15.646 817.745 15L817.954 14.487L814.211 5.804C814.16 5.69 814.135 5.60133 814.135 5.538C814.148 5.424 814.192 5.329 814.268 5.253C814.344 5.16433 814.439 5.12 814.553 5.12H816.073C816.301 5.12 816.466 5.24033 816.567 5.481L819.094 11.732L821.697 5.481C821.786 5.24033 821.963 5.12 822.229 5.12H823.673ZM824.815 15C824.689 15 824.575 14.9557 824.473 14.867C824.385 14.7657 824.34 14.6517 824.34 14.525V13.347C824.34 13.2203 824.378 13.119 824.454 13.043C824.53 12.9543 824.638 12.9037 824.777 12.891C825.335 12.8657 825.734 12.4857 825.974 11.751C826.228 11.0037 826.354 9.80033 826.354 8.141V5.576C826.354 5.43667 826.399 5.329 826.487 5.253C826.576 5.16433 826.684 5.12 826.81 5.12H833.555C833.682 5.12 833.79 5.16433 833.878 5.253C833.967 5.34167 834.011 5.44933 834.011 5.576V14.544C834.011 14.6707 833.967 14.7783 833.878 14.867C833.79 14.9557 833.682 15 833.555 15H831.978C831.852 15 831.744 14.9557 831.655 14.867C831.567 14.7783 831.522 14.6707 831.522 14.544V7.134H828.729V8.407C828.729 10.0537 828.603 11.352 828.349 12.302C828.109 13.252 827.703 13.9423 827.133 14.373C826.576 14.791 825.803 15 824.815 15ZM837.023 15C836.897 15 836.789 14.9557 836.7 14.867C836.612 14.7783 836.567 14.6707 836.567 14.544V5.576C836.567 5.44933 836.612 5.34167 836.7 5.253C836.789 5.16433 836.897 5.12 837.023 5.12H838.619C838.746 5.12 838.854 5.16433 838.942 5.253C839.031 5.34167 839.075 5.44933 839.075 5.576V8.255H841.032C842.299 8.255 843.262 8.559 843.92 9.167C844.579 9.76233 844.908 10.5983 844.908 11.675C844.908 12.777 844.566 13.6067 843.882 14.164C843.198 14.7213 842.198 15 840.88 15H837.023ZM840.823 13.195C841.457 13.195 841.919 13.081 842.21 12.853C842.502 12.6123 842.647 12.2197 842.647 11.675C842.647 11.1303 842.502 10.725 842.21 10.459C841.919 10.193 841.457 10.06 840.823 10.06H839.037V13.195H840.823ZM849.664 15C849.537 15 849.429 14.9557 849.341 14.867C849.252 14.7783 849.208 14.6707 849.208 14.544V7.134H846.111C845.984 7.134 845.876 7.08967 845.788 7.001C845.699 6.91233 845.655 6.79833 845.655 6.659V5.576C845.655 5.43667 845.699 5.329 845.788 5.253C845.876 5.16433 845.984 5.12 846.111 5.12H854.737C854.876 5.12 854.99 5.16433 855.079 5.253C855.167 5.34167 855.212 5.44933 855.212 5.576V6.659C855.212 6.78567 855.167 6.89967 855.079 7.001C854.99 7.08967 854.876 7.134 854.737 7.134H851.659V14.544C851.659 14.6707 851.614 14.7783 851.526 14.867C851.45 14.9557 851.342 15 851.203 15H849.664ZM865.477 5.12C865.578 5.12 865.667 5.158 865.743 5.234C865.832 5.31 865.876 5.39867 865.876 5.5C865.876 5.58867 865.851 5.69 865.8 5.804L862.19 14.43C861.797 15.3673 861.443 16.1147 861.126 16.672C860.809 17.2293 860.417 17.6917 859.948 18.059C859.479 18.4263 858.916 18.61 858.257 18.61H857.421C857.294 18.61 857.187 18.5657 857.098 18.477C857.009 18.401 856.965 18.2933 856.965 18.154V17.071C856.965 16.9443 857.009 16.8367 857.098 16.748C857.187 16.6593 857.294 16.615 857.421 16.615H858.01C858.39 16.615 858.675 16.5073 858.865 16.292C859.055 16.0767 859.283 15.646 859.549 15L859.758 14.487L856.015 5.804C855.964 5.69 855.939 5.60133 855.939 5.538C855.952 5.424 855.996 5.329 856.072 5.253C856.148 5.16433 856.243 5.12 856.357 5.12H857.877C858.105 5.12 858.27 5.24033 858.371 5.481L860.898 11.732L863.501 5.481C863.59 5.24033 863.767 5.12 864.033 5.12H865.477ZM868.029 18.61C867.902 18.61 867.794 18.5657 867.706 18.477C867.617 18.401 867.573 18.2933 867.573 18.154V5.576C867.573 5.43667 867.617 5.329 867.706 5.253C867.794 5.16433 867.902 5.12 868.029 5.12H869.53C869.669 5.12 869.777 5.16433 869.853 5.253C869.941 5.329 869.986 5.43667 869.986 5.576V6.336C870.695 5.39867 871.708 4.93 873.026 4.93C874.305 4.93 875.287 5.33533 875.971 6.146C876.655 6.944 877.022 8.027 877.073 9.395C877.085 9.547 877.092 9.76867 877.092 10.06C877.092 10.364 877.085 10.592 877.073 10.744C877.022 12.074 876.655 13.1507 875.971 13.974C875.287 14.7847 874.305 15.19 873.026 15.19C871.746 15.19 870.771 14.7403 870.1 13.841V18.154C870.1 18.2933 870.055 18.401 869.967 18.477C869.891 18.5657 869.783 18.61 869.644 18.61H868.029ZM872.323 13.157C873.691 13.157 874.419 12.3147 874.508 10.63C874.52 10.5033 874.527 10.3133 874.527 10.06C874.527 9.80667 874.52 9.61667 874.508 9.49C874.419 7.80533 873.691 6.963 872.323 6.963C871.588 6.963 871.043 7.19733 870.689 7.666C870.334 8.13467 870.138 8.711 870.1 9.395L870.081 10.117L870.1 10.858C870.125 11.4913 870.321 12.036 870.689 12.492C871.069 12.9353 871.613 13.157 872.323 13.157ZM882.094 15.19C881.448 15.19 880.852 15.0633 880.308 14.81C879.776 14.544 879.351 14.1893 879.035 13.746C878.731 13.3027 878.579 12.815 878.579 12.283C878.579 11.4217 878.927 10.725 879.624 10.193C880.32 9.661 881.277 9.3 882.493 9.11L885.096 8.73V8.331C885.096 7.77367 884.956 7.35567 884.678 7.077C884.399 6.79833 883.949 6.659 883.329 6.659C882.911 6.659 882.569 6.74133 882.303 6.906C882.049 7.058 881.847 7.21 881.695 7.362C881.543 7.52667 881.441 7.63433 881.391 7.685C881.34 7.837 881.245 7.913 881.106 7.913H879.643C879.529 7.913 879.427 7.875 879.339 7.799C879.263 7.723 879.225 7.62167 879.225 7.495C879.237 7.17833 879.389 6.81733 879.681 6.412C879.985 6.00667 880.447 5.65833 881.068 5.367C881.688 5.07567 882.448 4.93 883.348 4.93C884.842 4.93 885.932 5.26567 886.616 5.937C887.3 6.60833 887.642 7.48867 887.642 8.578V14.544C887.642 14.6707 887.597 14.7783 887.509 14.867C887.433 14.9557 887.325 15 887.186 15H885.647C885.52 15 885.412 14.9557 885.324 14.867C885.235 14.7783 885.191 14.6707 885.191 14.544V13.803C884.912 14.2083 884.513 14.544 883.994 14.81C883.487 15.0633 882.854 15.19 882.094 15.19ZM882.74 13.385C883.436 13.385 884.006 13.157 884.45 12.701C884.893 12.245 885.115 11.58 885.115 10.706V10.307L883.215 10.611C882.48 10.725 881.923 10.9087 881.543 11.162C881.175 11.4153 880.992 11.7257 880.992 12.093C880.992 12.4983 881.163 12.815 881.505 13.043C881.847 13.271 882.258 13.385 882.74 13.385ZM916.814 15C916.687 15 916.58 14.9557 916.491 14.867C916.402 14.7783 916.358 14.6707 916.358 14.544V2.175C916.358 2.03567 916.396 1.92167 916.472 1.833C916.561 1.74433 916.675 1.7 916.814 1.7H926.77C926.909 1.7 927.023 1.74433 927.112 1.833C927.201 1.92167 927.245 2.03567 927.245 2.175V14.544C927.245 14.6833 927.201 14.7973 927.112 14.886C927.023 14.962 926.909 15 926.77 15H925.06C924.933 15 924.826 14.9557 924.737 14.867C924.648 14.7783 924.604 14.6707 924.604 14.544V4.075H918.999V14.544C918.999 14.6707 918.955 14.7783 918.866 14.867C918.79 14.9557 918.682 15 918.543 15H916.814ZM930.447 18.61C930.32 18.61 930.212 18.5657 930.124 18.477C930.035 18.401 929.991 18.2933 929.991 18.154V5.576C929.991 5.43667 930.035 5.329 930.124 5.253C930.212 5.16433 930.32 5.12 930.447 5.12H931.948C932.087 5.12 932.195 5.16433 932.271 5.253C932.359 5.329 932.404 5.43667 932.404 5.576V6.336C933.113 5.39867 934.126 4.93 935.444 4.93C936.723 4.93 937.705 5.33533 938.389 6.146C939.073 6.944 939.44 8.027 939.491 9.395C939.503 9.547 939.51 9.76867 939.51 10.06C939.51 10.364 939.503 10.592 939.491 10.744C939.44 12.074 939.073 13.1507 938.389 13.974C937.705 14.7847 936.723 15.19 935.444 15.19C934.164 15.19 933.189 14.7403 932.518 13.841V18.154C932.518 18.2933 932.473 18.401 932.385 18.477C932.309 18.5657 932.201 18.61 932.062 18.61H930.447ZM934.741 13.157C936.109 13.157 936.837 12.3147 936.926 10.63C936.938 10.5033 936.945 10.3133 936.945 10.06C936.945 9.80667 936.938 9.61667 936.926 9.49C936.837 7.80533 936.109 6.963 934.741 6.963C934.006 6.963 933.461 7.19733 933.107 7.666C932.752 8.13467 932.556 8.711 932.518 9.395L932.499 10.117L932.518 10.858C932.543 11.4913 932.739 12.036 933.107 12.492C933.487 12.9353 934.031 13.157 934.741 13.157ZM946.013 15.19C944.531 15.19 943.384 14.81 942.574 14.05C941.763 13.2773 941.326 12.226 941.263 10.896L941.244 10.06L941.263 9.224C941.326 7.90667 941.769 6.86167 942.593 6.089C943.416 5.31633 944.556 4.93 946.013 4.93C947.469 4.93 948.609 5.31633 949.433 6.089C950.256 6.86167 950.699 7.90667 950.763 9.224C950.775 9.376 950.782 9.65467 950.782 10.06C950.782 10.4653 950.775 10.744 950.763 10.896C950.699 12.226 950.262 13.2773 949.452 14.05C948.641 14.81 947.495 15.19 946.013 15.19ZM946.013 13.309C946.684 13.309 947.203 13.1 947.571 12.682C947.938 12.2513 948.141 11.6243 948.179 10.801C948.191 10.6743 948.198 10.4273 948.198 10.06C948.198 9.69267 948.191 9.44567 948.179 9.319C948.141 8.49567 947.938 7.875 947.571 7.457C947.203 7.02633 946.684 6.811 946.013 6.811C945.341 6.811 944.822 7.02633 944.455 7.457C944.087 7.875 943.885 8.49567 943.847 9.319L943.828 10.06L943.847 10.801C943.885 11.6243 944.087 12.2513 944.455 12.682C944.822 13.1 945.341 13.309 946.013 13.309ZM961.893 5.12C962.007 5.12 962.108 5.16433 962.197 5.253C962.285 5.329 962.33 5.424 962.33 5.538V14.544C962.33 14.6707 962.285 14.7783 962.197 14.867C962.108 14.9557 962 15 961.874 15H960.297C960.17 15 960.062 14.9557 959.974 14.867C959.885 14.7783 959.841 14.6707 959.841 14.544V8.445L955.281 14.696C955.167 14.8987 954.996 15 954.768 15H953.324C953.21 15 953.108 14.962 953.02 14.886C952.931 14.7973 952.887 14.6897 952.887 14.563V5.576C952.887 5.44933 952.931 5.34167 953.02 5.253C953.108 5.16433 953.216 5.12 953.343 5.12H954.92C955.059 5.12 955.167 5.16433 955.243 5.253C955.331 5.329 955.376 5.43667 955.376 5.576V11.694L959.936 5.424C960.075 5.22133 960.246 5.12 960.449 5.12H961.893ZM969 15.19C967.606 15.19 966.492 14.8037 965.656 14.031C964.832 13.2583 964.395 12.188 964.345 10.82L964.326 10.06L964.345 9.3C964.395 7.932 964.832 6.86167 965.656 6.089C966.492 5.31633 967.606 4.93 969 4.93C969.988 4.93 970.824 5.10733 971.508 5.462C972.204 5.81667 972.717 6.25367 973.047 6.773C973.389 7.27967 973.572 7.761 973.598 8.217C973.61 8.34367 973.566 8.45133 973.465 8.54C973.376 8.62867 973.268 8.673 973.142 8.673H971.47C971.343 8.673 971.242 8.64767 971.166 8.597C971.102 8.53367 971.039 8.43233 970.976 8.293C970.786 7.799 970.532 7.44433 970.216 7.229C969.912 7.01367 969.519 6.906 969.038 6.906C968.392 6.906 967.885 7.115 967.518 7.533C967.15 7.93833 966.954 8.559 966.929 9.395L966.91 10.098L966.929 10.725C966.979 12.3843 967.682 13.214 969.038 13.214C969.532 13.214 969.931 13.1063 970.235 12.891C970.539 12.6757 970.786 12.321 970.976 11.827C971.039 11.6877 971.102 11.5927 971.166 11.542C971.242 11.4787 971.343 11.447 971.47 11.447H973.142C973.268 11.447 973.376 11.4913 973.465 11.58C973.566 11.6687 973.61 11.7763 973.598 11.903C973.572 12.3463 973.395 12.8213 973.066 13.328C972.736 13.8347 972.23 14.2717 971.546 14.639C970.862 15.0063 970.013 15.19 969 15.19ZM976.035 15C975.909 15 975.801 14.9557 975.712 14.867C975.624 14.7783 975.579 14.6707 975.579 14.544V5.576C975.579 5.44933 975.624 5.34167 975.712 5.253C975.801 5.16433 975.909 5.12 976.035 5.12H977.536C977.676 5.12 977.783 5.16433 977.859 5.253C977.948 5.329 977.992 5.43667 977.992 5.576V12.986H980.842V5.576C980.842 5.43667 980.887 5.329 980.975 5.253C981.064 5.16433 981.172 5.12 981.298 5.12H982.666C982.806 5.12 982.913 5.16433 982.989 5.253C983.078 5.329 983.122 5.43667 983.122 5.576V12.986H985.972V5.576C985.972 5.43667 986.017 5.329 986.105 5.253C986.194 5.16433 986.302 5.12 986.428 5.12H987.929C988.056 5.12 988.164 5.16433 988.252 5.253C988.341 5.34167 988.385 5.44933 988.385 5.576V14.544C988.385 14.6707 988.341 14.7783 988.252 14.867C988.164 14.9557 988.056 15 987.929 15H976.035ZM995.198 15.19C993.792 15.19 992.671 14.7847 991.835 13.974C991.012 13.1507 990.575 11.998 990.524 10.516L990.505 10.041L990.524 9.566C990.588 8.122 991.031 6.98833 991.854 6.165C992.69 5.34167 993.805 4.93 995.198 4.93C996.693 4.93 997.846 5.386 998.656 6.298C999.48 7.21 999.891 8.426 999.891 9.946V10.345C999.891 10.4717 999.847 10.5793 999.758 10.668C999.67 10.7567 999.556 10.801 999.416 10.801H993.108V10.953C993.134 11.6497 993.324 12.2387 993.678 12.72C994.046 13.1887 994.546 13.423 995.179 13.423C995.927 13.423 996.528 13.1317 996.984 12.549C997.098 12.4097 997.187 12.321 997.25 12.283C997.326 12.245 997.434 12.226 997.573 12.226H999.207C999.321 12.226 999.416 12.264 999.492 12.34C999.581 12.4033 999.625 12.4857 999.625 12.587C999.625 12.891 999.442 13.252 999.074 13.67C998.72 14.0753 998.207 14.43 997.535 14.734C996.864 15.038 996.085 15.19 995.198 15.19ZM997.307 9.205V9.148C997.307 8.40067 997.117 7.799 996.737 7.343C996.37 6.887 995.857 6.659 995.198 6.659C994.54 6.659 994.027 6.887 993.659 7.343C993.292 7.799 993.108 8.40067 993.108 9.148V9.205H997.307ZM1006.18 15.19C1004.79 15.19 1003.68 14.8037 1002.84 14.031C1002.02 13.2583 1001.58 12.188 1001.53 10.82L1001.51 10.06L1001.53 9.3C1001.58 7.932 1002.02 6.86167 1002.84 6.089C1003.68 5.31633 1004.79 4.93 1006.18 4.93C1007.17 4.93 1008.01 5.10733 1008.69 5.462C1009.39 5.81667 1009.9 6.25367 1010.23 6.773C1010.57 7.27967 1010.76 7.761 1010.78 8.217C1010.79 8.34367 1010.75 8.45133 1010.65 8.54C1010.56 8.62867 1010.45 8.673 1010.33 8.673H1008.65C1008.53 8.673 1008.43 8.64767 1008.35 8.597C1008.29 8.53367 1008.22 8.43233 1008.16 8.293C1007.97 7.799 1007.72 7.44433 1007.4 7.229C1007.1 7.01367 1006.7 6.906 1006.22 6.906C1005.58 6.906 1005.07 7.115 1004.7 7.533C1004.33 7.93833 1004.14 8.559 1004.11 9.395L1004.09 10.098L1004.11 10.725C1004.16 12.3843 1004.87 13.214 1006.22 13.214C1006.72 13.214 1007.11 13.1063 1007.42 12.891C1007.72 12.6757 1007.97 12.321 1008.16 11.827C1008.22 11.6877 1008.29 11.5927 1008.35 11.542C1008.43 11.4787 1008.53 11.447 1008.65 11.447H1010.33C1010.45 11.447 1010.56 11.4913 1010.65 11.58C1010.75 11.6687 1010.79 11.7763 1010.78 11.903C1010.76 12.3463 1010.58 12.8213 1010.25 13.328C1009.92 13.8347 1009.41 14.2717 1008.73 14.639C1008.05 15.0063 1007.2 15.19 1006.18 15.19ZM1015.78 15C1015.66 15 1015.55 14.9557 1015.46 14.867C1015.37 14.7783 1015.33 14.6707 1015.33 14.544V7.134H1012.23C1012.1 7.134 1012 7.08967 1011.91 7.001C1011.82 6.91233 1011.77 6.79833 1011.77 6.659V5.576C1011.77 5.43667 1011.82 5.329 1011.91 5.253C1012 5.16433 1012.1 5.12 1012.23 5.12H1020.86C1021 5.12 1021.11 5.16433 1021.2 5.253C1021.29 5.34167 1021.33 5.44933 1021.33 5.576V6.659C1021.33 6.78567 1021.29 6.89967 1021.2 7.001C1021.11 7.08967 1021 7.134 1020.86 7.134H1017.78V14.544C1017.78 14.6707 1017.73 14.7783 1017.65 14.867C1017.57 14.9557 1017.46 15 1017.32 15H1015.78ZM1023.29 15C1023.17 15 1023.06 14.9557 1022.97 14.867C1022.88 14.7783 1022.84 14.6707 1022.84 14.544V5.576C1022.84 5.44933 1022.88 5.34167 1022.97 5.253C1023.06 5.16433 1023.17 5.12 1023.29 5.12H1027.51C1028.82 5.12 1029.8 5.36067 1030.46 5.842C1031.13 6.32333 1031.46 6.99467 1031.46 7.856C1031.46 8.36267 1031.37 8.768 1031.18 9.072C1030.99 9.36333 1030.7 9.623 1030.32 9.851C1030.77 10.0537 1031.11 10.3577 1031.35 10.763C1031.6 11.1683 1031.73 11.6243 1031.73 12.131C1031.73 13.0557 1031.39 13.765 1030.7 14.259C1030.02 14.753 1029.03 15 1027.72 15H1023.29ZM1027.47 9.148C1027.98 9.148 1028.38 9.04667 1028.67 8.844C1028.96 8.62867 1029.11 8.31833 1029.11 7.913C1029.11 7.52033 1028.97 7.24167 1028.69 7.077C1028.41 6.91233 1028.01 6.83 1027.47 6.83H1025.27V9.148H1027.47ZM1027.55 13.29C1028.07 13.29 1028.47 13.195 1028.77 13.005C1029.07 12.8023 1029.22 12.5047 1029.22 12.112C1029.22 11.694 1029.08 11.39 1028.8 11.2C1028.54 11.01 1028.12 10.915 1027.55 10.915H1025.27V13.29H1027.55ZM1042.92 5.12C1043.04 5.12 1043.14 5.16433 1043.23 5.253C1043.31 5.329 1043.36 5.424 1043.36 5.538V14.544C1043.36 14.6707 1043.31 14.7783 1043.23 14.867C1043.14 14.9557 1043.03 15 1042.9 15H1041.33C1041.2 15 1041.09 14.9557 1041 14.867C1040.91 14.7783 1040.87 14.6707 1040.87 14.544V8.445L1036.31 14.696C1036.2 14.8987 1036.02 15 1035.8 15H1034.35C1034.24 15 1034.14 14.962 1034.05 14.886C1033.96 14.7973 1033.92 14.6897 1033.92 14.563V5.576C1033.92 5.44933 1033.96 5.34167 1034.05 5.253C1034.14 5.16433 1034.24 5.12 1034.37 5.12H1035.95C1036.09 5.12 1036.2 5.16433 1036.27 5.253C1036.36 5.329 1036.4 5.43667 1036.4 5.576V11.694L1040.96 5.424C1041.1 5.22133 1041.27 5.12 1041.48 5.12H1042.92ZM1053.64 5.12C1053.78 5.12 1053.89 5.16433 1053.96 5.253C1054.05 5.329 1054.09 5.43667 1054.09 5.576V14.544C1054.09 14.6707 1054.05 14.7783 1053.96 14.867C1053.89 14.9557 1053.78 15 1053.64 15H1052.02C1051.9 15 1051.79 14.9557 1051.7 14.867C1051.61 14.7783 1051.57 14.6707 1051.57 14.544V11.637H1049.88L1048 14.715C1047.88 14.905 1047.72 15 1047.52 15H1045.94C1045.83 15 1045.73 14.962 1045.66 14.886C1045.58 14.81 1045.54 14.7213 1045.54 14.62C1045.54 14.506 1045.58 14.4047 1045.66 14.316L1047.65 11.181C1047.06 10.9277 1046.61 10.5603 1046.3 10.079C1046 9.585 1045.85 9.00233 1045.85 8.331C1045.85 7.267 1046.18 6.469 1046.84 5.937C1047.51 5.39233 1048.48 5.12 1049.76 5.12H1053.64ZM1051.61 6.925H1049.82C1049.22 6.925 1048.79 7.03267 1048.51 7.248C1048.24 7.46333 1048.11 7.82433 1048.11 8.331C1048.11 8.79967 1048.24 9.167 1048.51 9.433C1048.77 9.699 1049.17 9.832 1049.71 9.832H1051.61V6.925ZM1086.32 15C1086.2 15 1086.09 14.9557 1086 14.867C1085.91 14.7783 1085.87 14.6707 1085.87 14.544V4.037H1082.35C1082.23 4.037 1082.12 3.99267 1082.03 3.904C1081.94 3.81533 1081.9 3.70767 1081.9 3.581V2.175C1081.9 2.03567 1081.93 1.92167 1082.01 1.833C1082.1 1.74433 1082.21 1.7 1082.35 1.7H1092.04C1092.18 1.7 1092.3 1.74433 1092.38 1.833C1092.47 1.92167 1092.52 2.03567 1092.52 2.175V3.581C1092.52 3.70767 1092.47 3.81533 1092.38 3.904C1092.3 3.99267 1092.18 4.037 1092.04 4.037H1088.55V14.544C1088.55 14.6707 1088.5 14.7783 1088.41 14.867C1088.33 14.9557 1088.21 15 1088.07 15H1086.32ZM1102.98 5.12C1103.08 5.12 1103.17 5.158 1103.24 5.234C1103.33 5.31 1103.38 5.39867 1103.38 5.5C1103.38 5.58867 1103.35 5.69 1103.3 5.804L1099.69 14.43C1099.3 15.3673 1098.94 16.1147 1098.63 16.672C1098.31 17.2293 1097.92 17.6917 1097.45 18.059C1096.98 18.4263 1096.42 18.61 1095.76 18.61H1094.92C1094.79 18.61 1094.69 18.5657 1094.6 18.477C1094.51 18.401 1094.46 18.2933 1094.46 18.154V17.071C1094.46 16.9443 1094.51 16.8367 1094.6 16.748C1094.69 16.6593 1094.79 16.615 1094.92 16.615H1095.51C1095.89 16.615 1096.17 16.5073 1096.36 16.292C1096.55 16.0767 1096.78 15.646 1097.05 15L1097.26 14.487L1093.51 5.804C1093.46 5.69 1093.44 5.60133 1093.44 5.538C1093.45 5.424 1093.5 5.329 1093.57 5.253C1093.65 5.16433 1093.74 5.12 1093.86 5.12H1095.38C1095.6 5.12 1095.77 5.24033 1095.87 5.481L1098.4 11.732L1101 5.481C1101.09 5.24033 1101.27 5.12 1101.53 5.12H1102.98ZM1105.53 18.61C1105.4 18.61 1105.29 18.5657 1105.21 18.477C1105.12 18.401 1105.07 18.2933 1105.07 18.154V5.576C1105.07 5.43667 1105.12 5.329 1105.21 5.253C1105.29 5.16433 1105.4 5.12 1105.53 5.12H1107.03C1107.17 5.12 1107.28 5.16433 1107.35 5.253C1107.44 5.329 1107.49 5.43667 1107.49 5.576V6.336C1108.2 5.39867 1109.21 4.93 1110.53 4.93C1111.81 4.93 1112.79 5.33533 1113.47 6.146C1114.15 6.944 1114.52 8.027 1114.57 9.395C1114.59 9.547 1114.59 9.76867 1114.59 10.06C1114.59 10.364 1114.59 10.592 1114.57 10.744C1114.52 12.074 1114.15 13.1507 1113.47 13.974C1112.79 14.7847 1111.81 15.19 1110.53 15.19C1109.25 15.19 1108.27 14.7403 1107.6 13.841V18.154C1107.6 18.2933 1107.56 18.401 1107.47 18.477C1107.39 18.5657 1107.28 18.61 1107.14 18.61H1105.53ZM1109.82 13.157C1111.19 13.157 1111.92 12.3147 1112.01 10.63C1112.02 10.5033 1112.03 10.3133 1112.03 10.06C1112.03 9.80667 1112.02 9.61667 1112.01 9.49C1111.92 7.80533 1111.19 6.963 1109.82 6.963C1109.09 6.963 1108.54 7.19733 1108.19 7.666C1107.83 8.13467 1107.64 8.711 1107.6 9.395L1107.58 10.117L1107.6 10.858C1107.63 11.4913 1107.82 12.036 1108.19 12.492C1108.57 12.9353 1109.11 13.157 1109.82 13.157ZM1125.73 5.12C1125.84 5.12 1125.95 5.16433 1126.03 5.253C1126.12 5.329 1126.17 5.424 1126.17 5.538V14.544C1126.17 14.6707 1126.12 14.7783 1126.03 14.867C1125.95 14.9557 1125.84 15 1125.71 15H1124.13C1124.01 15 1123.9 14.9557 1123.81 14.867C1123.72 14.7783 1123.68 14.6707 1123.68 14.544V8.445L1119.12 14.696C1119 14.8987 1118.83 15 1118.61 15H1117.16C1117.05 15 1116.95 14.962 1116.86 14.886C1116.77 14.7973 1116.72 14.6897 1116.72 14.563V5.576C1116.72 5.44933 1116.77 5.34167 1116.86 5.253C1116.95 5.16433 1117.05 5.12 1117.18 5.12H1118.76C1118.9 5.12 1119 5.16433 1119.08 5.253C1119.17 5.329 1119.21 5.43667 1119.21 5.576V11.694L1123.77 5.424C1123.91 5.22133 1124.08 5.12 1124.29 5.12H1125.73ZM1132.36 15.19C1131.35 15.19 1130.53 15.0443 1129.89 14.753C1129.27 14.449 1128.82 14.0817 1128.52 13.651C1128.25 13.2203 1128.09 12.796 1128.07 12.378V12.321C1128.07 12.2323 1128.1 12.1627 1128.16 12.112C1128.24 12.0487 1128.32 12.017 1128.41 12.017H1129.97C1130.1 12.017 1130.19 12.0423 1130.25 12.093C1130.33 12.1437 1130.39 12.226 1130.44 12.34C1130.57 12.7073 1130.8 12.9733 1131.13 13.138C1131.47 13.29 1131.91 13.366 1132.46 13.366C1133.01 13.366 1133.46 13.2583 1133.79 13.043C1134.12 12.8277 1134.28 12.4983 1134.28 12.055C1134.28 11.1937 1133.77 10.763 1132.74 10.763H1131.7C1131.57 10.763 1131.47 10.725 1131.39 10.649C1131.32 10.573 1131.28 10.4717 1131.28 10.345V9.547C1131.28 9.433 1131.32 9.338 1131.39 9.262C1131.47 9.17333 1131.57 9.129 1131.7 9.129H1132.67C1133.12 9.129 1133.46 9.04667 1133.69 8.882C1133.92 8.70467 1134.03 8.43233 1134.03 8.065C1134.03 7.69767 1133.9 7.39367 1133.64 7.153C1133.37 6.89967 1132.94 6.773 1132.34 6.773C1131.77 6.773 1131.36 6.86167 1131.11 7.039C1130.86 7.21633 1130.66 7.50767 1130.52 7.913C1130.46 8.027 1130.39 8.10933 1130.31 8.16C1130.25 8.21067 1130.15 8.236 1130.03 8.236H1128.52C1128.42 8.236 1128.33 8.20433 1128.26 8.141C1128.18 8.065 1128.15 7.97633 1128.16 7.875C1128.19 7.36833 1128.35 6.89333 1128.64 6.45C1128.94 6.00667 1129.4 5.64567 1130.03 5.367C1130.65 5.07567 1131.43 4.93 1132.36 4.93C1133.76 4.93 1134.78 5.20233 1135.44 5.747C1136.11 6.29167 1136.45 6.95033 1136.45 7.723C1136.45 8.217 1136.35 8.62867 1136.16 8.958C1135.99 9.28733 1135.68 9.55967 1135.25 9.775C1136.26 10.1677 1136.77 10.9973 1136.77 12.264C1136.77 13.176 1136.37 13.8917 1135.55 14.411C1134.76 14.9303 1133.69 15.19 1132.36 15.19ZM1149.12 5.12C1149.22 5.12 1149.31 5.158 1149.39 5.234C1149.48 5.31 1149.52 5.39233 1149.52 5.481V14.601C1149.52 14.715 1149.48 14.81 1149.41 14.886C1149.33 14.962 1149.23 15 1149.1 15H1147.47C1147.34 15 1147.24 14.962 1147.17 14.886C1147.1 14.81 1147.07 14.715 1147.07 14.601V9.281L1145.04 13.024C1144.95 13.176 1144.86 13.29 1144.77 13.366C1144.7 13.442 1144.58 13.48 1144.43 13.48H1143.8C1143.66 13.48 1143.55 13.442 1143.46 13.366C1143.37 13.29 1143.29 13.176 1143.21 13.024L1141.18 9.357V14.601C1141.18 14.715 1141.14 14.81 1141.07 14.886C1140.99 14.962 1140.9 15 1140.78 15H1139.15C1139.02 15 1138.92 14.962 1138.84 14.886C1138.77 14.81 1138.73 14.715 1138.73 14.601V5.481C1138.73 5.39233 1138.77 5.31 1138.84 5.234C1138.92 5.158 1139.01 5.12 1139.11 5.12H1140.71C1140.92 5.12 1141.09 5.22767 1141.2 5.443L1144.13 10.763L1147.05 5.443C1147.17 5.22767 1147.33 5.12 1147.55 5.12H1149.12Z" fill="#515151"/>
</svg>
